<svg width="600" height="326" viewBox="0 0 600 326" fill="none" xmlns="http://www.w3.org/2000/svg">
<g clip-path="url(#clip0)">
<path d="M301.925 326C464.62 326 596.51 317.276 596.51 306.514C596.51 295.752 464.62 287.028 301.925 287.028C139.23 287.028 7.33984 295.752 7.33984 306.514C7.33984 317.276 139.23 326 301.925 326Z" fill="#F2F2F2"/>
<path d="M290.634 93.1912C242.638 93.1912 208.178 123.959 208.178 195.75C208.178 277.114 242.638 298.651 290.634 298.651C338.63 298.651 375.144 275.062 375.144 195.75C375.144 110.968 338.63 93.1912 290.634 93.1912ZM290.95 271.644C257.707 271.644 240.339 252.157 240.339 195.803C240.339 146.078 258.418 119.857 291.661 119.857C324.904 119.857 342.982 137.081 342.982 195.803C342.982 250.736 324.193 271.644 290.95 271.644Z" fill="#2F2E41"/>
<path d="M179.438 241.902H159.593V183.513C159.593 180.412 158.36 177.438 156.166 175.245C153.971 173.052 150.994 171.82 147.891 171.82H143.241C141.704 171.82 140.182 172.122 138.762 172.71C137.342 173.297 136.052 174.159 134.965 175.245C133.879 176.33 133.017 177.62 132.429 179.038C131.84 180.457 131.538 181.977 131.538 183.513V241.902H75.5637C74.4122 241.902 73.2802 241.604 72.2776 241.038C71.275 240.473 70.4358 239.657 69.8415 238.672C69.2471 237.686 68.9177 236.564 68.8853 235.414C68.8529 234.264 69.1186 233.125 69.6565 232.108L128.899 120.073C129.637 118.676 130.085 117.144 130.215 115.569C130.345 113.995 130.154 112.411 129.654 110.912C129.154 109.413 128.355 108.031 127.306 106.85C126.256 105.668 124.978 104.711 123.549 104.036L120.051 102.386C117.336 101.105 114.231 100.916 111.38 101.858C108.529 102.8 106.149 104.801 104.733 107.447L32.4796 242.501C31.2492 244.801 30.6055 247.368 30.6055 249.976V249.976C30.6055 252.058 31.0159 254.12 31.8134 256.044C32.6109 257.968 33.7798 259.716 35.2534 261.188C36.727 262.66 38.4763 263.828 40.4016 264.625C42.327 265.422 44.3905 265.832 46.4744 265.832H131.538V302.753C131.538 304.594 131.901 306.417 132.605 308.117C133.31 309.818 134.344 311.363 135.646 312.664C136.949 313.966 138.495 314.998 140.197 315.703C141.899 316.407 143.723 316.77 145.566 316.77H145.566C147.408 316.77 149.232 316.407 150.934 315.703C152.636 314.998 154.182 313.966 155.485 312.664C156.787 311.363 157.821 309.818 158.526 308.117C159.231 306.417 159.593 304.594 159.593 302.753V265.832H179.438C182.614 265.832 185.66 264.571 187.905 262.328C190.151 260.084 191.413 257.04 191.413 253.867V253.867C191.413 250.694 190.151 247.65 187.905 245.406C185.66 243.162 182.614 241.902 179.438 241.902V241.902Z" fill="#72BBFF"/>
<path d="M546.9 241.902H527.056V183.513C527.056 180.412 525.823 177.438 523.628 175.245C521.433 173.052 518.457 171.82 515.353 171.82H510.703C509.166 171.82 507.644 172.122 506.224 172.71C504.805 173.297 503.514 174.159 502.428 175.245C501.341 176.33 500.479 177.62 499.891 179.038C499.303 180.457 499 181.977 499 183.513V241.902H443.026C441.875 241.902 440.743 241.604 439.74 241.038C438.737 240.473 437.898 239.657 437.304 238.672C436.709 237.686 436.38 236.564 436.348 235.414C436.315 234.264 436.581 233.125 437.119 232.108L496.361 120.073C497.1 118.676 497.547 117.144 497.677 115.569C497.807 113.995 497.616 112.411 497.116 110.912C496.616 109.413 495.817 108.031 494.768 106.85C493.719 105.668 492.441 104.711 491.011 104.036L487.514 102.386C484.798 101.105 481.694 100.916 478.842 101.858C475.991 102.8 473.611 104.801 472.196 107.447L399.942 242.501C398.712 244.801 398.068 247.368 398.068 249.976V249.976C398.068 254.181 399.74 258.214 402.716 261.188C405.692 264.162 409.728 265.832 413.937 265.832H499V302.753C499 306.471 500.478 310.036 503.109 312.664C505.739 315.293 509.307 316.77 513.028 316.77V316.77C516.748 316.77 520.316 315.293 522.947 312.664C525.578 310.036 527.056 306.471 527.056 302.753V265.832H546.9C550.076 265.832 553.122 264.571 555.368 262.328C557.613 260.084 558.875 257.04 558.875 253.867V253.867C558.875 250.694 557.613 247.65 555.368 245.406C553.122 243.162 550.076 241.902 546.9 241.902Z" fill="#72BBFF"/>
<path d="M184.912 235.064H165.068V176.676C165.068 175.14 164.765 173.62 164.177 172.201C163.589 170.782 162.727 169.493 161.64 168.407C160.554 167.322 159.263 166.46 157.844 165.873C156.424 165.285 154.902 164.982 153.365 164.982H148.715C145.611 164.982 142.635 166.214 140.44 168.407C138.245 170.6 137.012 173.575 137.012 176.676V235.064H81.0383C79.8868 235.064 78.7548 234.767 77.7522 234.201C76.7496 233.635 75.9104 232.82 75.3161 231.835C74.7217 230.849 74.3924 229.727 74.3599 228.577C74.3275 227.427 74.5932 226.288 75.1311 225.27L134.373 113.235C135.112 111.839 135.56 110.307 135.689 108.732C135.819 107.158 135.628 105.573 135.128 104.075C134.628 102.576 133.829 101.194 132.78 100.012C131.731 98.8306 130.453 97.8736 129.023 97.199L125.526 95.5489C122.81 94.2676 119.706 94.0784 116.855 95.0205C114.003 95.9625 111.624 97.9637 110.208 100.61L37.9542 235.664C36.7238 237.964 36.0801 240.531 36.0801 243.139V243.139C36.0801 247.344 37.752 251.377 40.728 254.351C43.704 257.324 47.7403 258.995 51.949 258.995H137.012V295.916C137.012 297.757 137.375 299.579 138.08 301.28C138.785 302.98 139.818 304.526 141.121 305.827C142.424 307.129 143.97 308.161 145.672 308.865C147.374 309.57 149.198 309.932 151.04 309.932H151.04C154.761 309.932 158.329 308.456 160.959 305.827C163.59 303.199 165.068 299.633 165.068 295.916V258.995H184.912C186.485 258.995 188.042 258.685 189.495 258.084C190.948 257.483 192.268 256.601 193.38 255.49C194.492 254.379 195.374 253.06 195.976 251.609C196.578 250.157 196.887 248.601 196.887 247.03V247.03C196.887 245.458 196.578 243.902 195.976 242.451C195.374 240.999 194.492 239.68 193.38 238.569C192.268 237.458 190.948 236.577 189.495 235.975C188.042 235.374 186.485 235.064 184.912 235.064V235.064Z" stroke="#3F3D56" stroke-miterlimit="10"/>
<path d="M557.164 235.064H537.32V176.676C537.32 173.575 536.087 170.6 533.892 168.407C531.697 166.214 528.72 164.982 525.617 164.982H520.967C519.43 164.982 517.908 165.285 516.488 165.873C515.068 166.46 513.778 167.322 512.691 168.407C511.605 169.493 510.743 170.782 510.155 172.201C509.566 173.62 509.264 175.14 509.264 176.676V235.064H453.29C452.138 235.064 451.006 234.767 450.004 234.201C449.001 233.635 448.162 232.82 447.568 231.835C446.973 230.849 446.644 229.727 446.611 228.577C446.579 227.427 446.845 226.288 447.383 225.27L506.625 113.235C507.363 111.839 507.811 110.307 507.941 108.732C508.071 107.158 507.88 105.573 507.38 104.075C506.88 102.576 506.081 101.194 505.032 100.012C503.982 98.8306 502.704 97.8736 501.275 97.199L497.777 95.5489C495.062 94.2676 491.957 94.0784 489.106 95.0205C486.255 95.9625 483.875 97.9637 482.459 100.61L410.206 235.664C408.975 237.964 408.332 240.531 408.332 243.139C408.332 247.344 410.003 251.377 412.979 254.351C415.955 257.324 419.992 258.995 424.201 258.995H509.264V295.916C509.264 299.633 510.742 303.199 513.372 305.827C516.003 308.456 519.571 309.932 523.292 309.932V309.932C527.012 309.932 530.58 308.456 533.211 305.827C535.841 303.199 537.319 299.633 537.319 295.916V258.995H557.164C558.736 258.995 560.293 258.685 561.746 258.084C563.199 257.483 564.519 256.601 565.631 255.49C566.743 254.379 567.625 253.06 568.227 251.609C568.829 250.157 569.139 248.601 569.139 247.03V247.03C569.139 243.856 567.877 240.813 565.631 238.569C563.386 236.325 560.34 235.064 557.164 235.064V235.064Z" stroke="#3F3D56" stroke-miterlimit="10"/>
<path d="M301.583 87.0376C253.588 87.0376 219.127 117.805 219.127 189.597C219.127 270.96 253.588 292.497 301.583 292.497C349.579 292.497 386.093 268.909 386.093 189.597C386.093 104.815 349.579 87.0376 301.583 87.0376ZM301.899 265.49C268.656 265.49 251.288 246.003 251.288 189.649C251.288 139.925 269.367 113.703 302.61 113.703C335.853 113.703 353.931 130.927 353.931 189.649C353.931 244.583 335.142 265.49 301.899 265.49V265.49Z" stroke="#3F3D56" stroke-miterlimit="10"/>
<path d="M263.111 17.3826C267.09 17.3826 270.316 14.1595 270.316 10.1837C270.316 6.20791 267.09 2.98488 263.111 2.98488C259.132 2.98488 255.906 6.20791 255.906 10.1837C255.906 14.1595 259.132 17.3826 263.111 17.3826Z" fill="#2F2E41"/>
<path d="M280.684 52.3232C291.845 52.3232 300.892 40.6103 300.892 26.1616C300.892 11.713 291.845 0 280.684 0C269.523 0 260.476 11.713 260.476 26.1616C260.476 40.6103 269.523 52.3232 280.684 52.3232Z" fill="#2F2E41"/>
<path opacity="0.1" d="M280.684 44.4221C270.561 44.4221 262.176 34.7852 260.705 22.211C260.552 23.5223 260.475 24.8414 260.476 26.1616C260.476 40.6103 269.523 52.3233 280.684 52.3233C291.845 52.3233 300.892 40.6103 300.892 26.1616C300.893 24.8414 300.816 23.5223 300.663 22.211C299.192 34.7852 290.807 44.4221 280.684 44.4221Z" fill="black"/>
<path d="M321.806 102.777C321.372 104.559 319.5 105.986 317.428 106.983C313.071 109.079 307.697 109.705 302.484 109.915C301.154 109.996 299.82 109.971 298.494 109.841C295.925 109.593 293.514 108.486 291.653 106.699C291.52 106.612 291.411 106.494 291.337 106.354C291.262 106.214 291.224 106.057 291.227 105.899C291.229 105.74 291.272 105.585 291.35 105.448C291.429 105.31 291.542 105.195 291.677 105.112C294.452 102.066 299.083 100.198 303.749 98.8536C307.286 97.8339 313.455 95.1926 317.314 95.5491C321.051 95.8943 322.354 100.527 321.806 102.777Z" fill="#3F3D56"/>
<path opacity="0.1" d="M321.806 102.777C321.372 104.559 319.5 105.986 317.428 106.983C313.071 109.079 307.697 109.705 302.484 109.915C301.154 109.996 299.82 109.971 298.494 109.841C295.925 109.593 293.514 108.486 291.653 106.699C291.52 106.612 291.411 106.494 291.337 106.354C291.262 106.214 291.224 106.057 291.227 105.899C291.229 105.74 291.272 105.585 291.35 105.448C291.429 105.31 291.542 105.195 291.677 105.112C294.452 102.066 299.083 100.198 303.749 98.8536C307.286 97.8339 313.455 95.1926 317.314 95.5491C321.051 95.8943 322.354 100.527 321.806 102.777Z" fill="black"/>
<path d="M266.407 89.4591C265.077 92.0635 264.837 95.089 265.738 97.8708C266.655 100.631 268.371 103.058 270.669 104.844C276.306 109.359 284.065 109.98 291.29 109.918C297.621 109.863 303.944 109.43 310.224 108.621C312.329 108.435 314.397 107.955 316.368 107.196C318.726 106.176 320.798 104.307 321.637 101.88C322.477 99.4541 321.881 96.4831 319.887 94.8639C318.136 93.4412 315.72 93.2455 313.466 93.1102L300.573 92.336C301.847 91.0479 303.543 90.3194 305.094 89.383C307.152 88.1406 308.52 86.0548 310.016 84.1742C312.322 81.4209 314.83 78.8437 317.521 76.4644C317.94 78.8696 319.463 80.8446 321.255 82.5041C323.047 84.1637 325.113 85.4997 326.976 87.0798C331.488 90.9068 334.736 96.1009 339.481 99.635C342.745 98.778 345.796 97.2559 348.444 95.1642L346.599 91.8266C346.446 91.4831 346.206 91.1848 345.904 90.9601C345.382 90.6393 344.709 90.8046 344.103 90.7138C342.483 90.4711 341.776 88.6023 341.14 87.0939C339.395 82.9525 336.054 79.7395 333.2 76.2666C331.094 73.7029 329.226 70.9532 327.618 68.0512C326.659 66.3205 325.782 64.5185 324.481 63.0275C323.18 61.5364 321.357 60.3641 319.377 60.36C317.628 60.3563 316.015 61.2436 314.511 62.1361C309.93 64.8547 305.523 67.8549 301.315 71.1193C299.112 72.8277 296.923 74.6327 294.34 75.6803C293.252 76.1213 292.106 76.4228 291.062 76.9594C289.234 77.8993 287.847 79.4896 286.354 80.9012C281.027 85.9361 273.735 89.1982 266.407 89.4591Z" fill="#3F3D56"/>
<path d="M293.368 53.6225C293.308 55.1616 292.98 56.6784 292.4 58.1051C292.105 58.8167 291.667 59.4601 291.113 59.995C290.559 60.53 289.901 60.9452 289.179 61.2147C288.154 61.4891 287.079 61.5239 286.038 61.3165C285.131 61.2218 284.257 60.9242 283.48 60.4456C282.271 59.6151 281.668 58.1332 281.449 56.6829C281.229 55.2344 281.327 53.7542 281.187 52.2951C281.05 51.1166 280.825 49.9499 280.515 48.8046C280.421 48.4236 280.324 48.0443 280.229 47.6651C280.136 47.2858 280.044 46.9066 279.96 46.5273C279.883 46.1709 279.811 45.8127 279.749 45.4527C279.698 45.149 279.653 44.8435 279.619 44.5362C279.588 43.6253 279.437 42.7225 279.168 41.8516C278.915 41.2867 278.599 40.7525 278.226 40.2591C278.066 40.0308 277.911 39.8025 277.769 39.5655C277.357 38.9495 277.166 38.2126 277.226 37.4743C277.243 37.3602 277.27 37.2479 277.308 37.139C277.323 37.0968 277.338 37.0547 277.356 37.0143C277.514 36.9714 277.659 36.8906 277.779 36.7789C277.899 36.6673 277.989 36.5281 278.043 36.3734C278.103 36.0412 278.075 35.699 277.96 35.3814C277.829 34.9376 277.649 34.5095 277.424 34.1049C277.277 33.838 276.776 33.3569 276.772 33.0514C276.765 32.4369 277.967 31.9417 278.454 31.6994C279.94 30.956 281.597 30.6203 283.255 30.7267C284.318 30.7987 285.471 31.1253 286.058 32.0155C286.585 32.8179 286.515 33.8573 286.74 34.7897C286.763 34.9252 286.821 35.0526 286.907 35.1601C287.021 35.2645 287.166 35.3308 287.32 35.3497C287.58 35.4015 287.847 35.4122 288.11 35.3814H288.112C288.182 35.3758 288.251 35.3659 288.319 35.3515C288.73 35.2758 289.118 35.1084 289.455 34.8616C289.673 34.8037 289.892 34.7563 290.114 34.7194C290.123 34.7185 290.131 34.7167 290.14 34.7141C291.02 37.4901 291.135 40.4662 291.855 43.2931C292.212 44.6995 292.723 46.0883 292.795 47.5351C292.8 47.5983 292.802 47.6633 292.804 47.7282C292.815 48.1935 292.778 48.6623 292.797 49.1259C292.804 49.3346 292.827 49.5425 292.867 49.7474C292.946 50.0771 293.044 50.4019 293.161 50.7202L293.166 50.7359C293.199 50.8378 293.231 50.9414 293.257 51.045C293.277 51.1205 293.294 51.1942 293.308 51.2697L293.31 51.275C293.44 52.0509 293.46 52.8412 293.368 53.6225V53.6225Z" fill="#FBBEBE"/>
<path d="M281.035 35.4674C286.761 35.4674 291.403 30.8294 291.403 25.1081C291.403 19.3868 286.761 14.7488 281.035 14.7488C275.309 14.7488 270.667 19.3868 270.667 25.1081C270.667 30.8294 275.309 35.4674 281.035 35.4674Z" fill="#FBBEBE"/>
<path d="M346.858 81.5505C346.558 78.7242 345.552 76.0184 343.934 73.681C344.203 75.2788 344.473 76.876 344.743 78.4726C344.407 78.5696 344.05 78.5667 343.716 78.4641C343.382 78.3614 343.085 78.1636 342.862 77.8949C342.426 77.3503 342.092 76.731 341.877 76.0671C340.699 73.1454 339.158 70.383 337.292 67.8446C330.692 67.2951 324.167 64.5613 318.363 61.3745C312.557 58.1894 307.123 54.3705 301.395 51.0503C300.402 50.4504 299.367 49.9223 298.298 49.47C296.506 48.7519 294.494 48.3797 292.795 47.5351C292.68 47.4789 292.566 47.4192 292.454 47.3578C292.07 47.1492 291.706 46.9052 291.368 46.6291C291.185 46.4807 291.011 46.3212 290.848 46.1515C290 45.166 289.328 44.0424 288.86 42.8296C287.948 40.8139 287.623 38.3821 286.713 36.3664C287.131 35.9757 287.601 35.6443 288.11 35.3814H288.112C288.185 35.3428 288.259 35.3059 288.335 35.2708C288.695 35.1013 289.07 34.9644 289.454 34.8617C289.672 34.8037 289.892 34.7563 290.113 34.7194C290.122 34.7185 290.131 34.7168 290.14 34.7142C291.166 34.547 292.218 34.6301 293.206 34.9565C294.65 35.4446 295.868 36.4191 297.082 37.3409C299.055 38.7295 300.947 40.229 302.75 41.8322C303.751 42.7909 304.665 43.8444 305.742 44.7153C306.637 45.4056 307.581 46.0305 308.566 46.5852C314.395 50.0547 320.224 53.5236 326.054 56.9919C328.028 58.1666 330.003 59.3412 331.932 60.5843C334.863 62.4736 337.689 64.5209 340.513 66.5664C342.177 67.7709 343.841 68.976 345.504 70.1816C346.049 70.5294 346.528 70.9718 346.918 71.4879C347.263 72.074 347.477 72.7274 347.545 73.4035C347.963 76.1353 347.727 78.9271 346.858 81.5505V81.5505Z" fill="#FBBEBE"/>
<path d="M295.939 61.4131C295.239 64.5472 292.069 66.4418 290.412 69.1948C288.353 72.6117 289.193 76.5833 289.966 80.497C288.553 81.7138 287.14 82.9306 285.726 84.1474C284.946 84.8163 284.165 85.4888 283.325 86.0805C282.101 86.9005 280.821 87.635 279.495 88.2788C278.243 88.9214 276.992 89.5646 275.741 90.2084C274.578 90.8619 273.346 91.3837 272.067 91.7641C269.601 92.3962 266.983 91.9537 264.544 91.2215C264.256 91.1462 263.98 91.0334 263.721 90.8862C263.569 90.7955 263.437 90.6756 263.331 90.5332C263.091 90.1025 263.004 89.603 263.084 89.1163C263.331 85.0147 264.335 80.9992 265.335 77.0135C265.869 74.6224 266.588 72.276 267.484 69.9955C268.363 68.0414 269.373 66.149 270.508 64.3312C271.76 62.0442 273.244 59.8914 274.936 57.9067C275.76 57.1428 276.453 56.2497 276.989 55.2625C277.613 53.8403 277.372 52.2091 277.498 50.6605C277.595 49.497 277.904 48.361 278.41 47.3086V47.3069C278.681 46.7401 279.007 46.2013 279.384 45.6985C279.554 46.0954 279.725 46.4916 279.895 46.8872C280.008 47.1471 280.119 47.4064 280.229 47.6651C280.373 47.9987 280.516 48.3311 280.658 48.6624C281.067 49.614 281.476 50.5651 281.884 51.5156C282.326 52.7127 282.954 53.8323 283.747 54.8323C284.109 55.3444 284.599 55.7539 285.167 56.0207C285.735 56.2875 286.362 56.4025 286.988 56.3546C287.614 56.3066 288.217 56.0973 288.737 55.7471C289.258 55.3969 289.679 54.9178 289.959 54.3565C290.55 53.3087 290.977 52.1774 291.228 51.0011C291.575 49.5689 291.623 48.0807 291.368 46.6292C290.945 43.8339 289.755 40.979 288.891 38.3821C288.539 37.5162 288.335 36.5974 288.288 35.6641C288.29 35.5592 288.3 35.4547 288.319 35.3516C288.325 35.3252 288.33 35.2971 288.335 35.2708C288.695 35.1013 289.07 34.9644 289.455 34.8617C289.673 34.8037 289.892 34.7563 290.114 34.7195C290.874 38.8351 291.637 42.9507 292.4 47.0663C292.417 47.1629 292.437 47.2595 292.454 47.3578C292.563 47.9478 292.674 48.5377 292.797 49.1259C292.908 49.6597 293.027 50.1917 293.161 50.7202L293.166 50.736C293.212 50.9151 293.259 51.0924 293.308 51.2698L293.31 51.275C293.445 51.7596 293.596 52.2407 293.767 52.7148C294.8 55.5715 296.601 58.4475 295.939 61.4131Z" fill="#72BBFF"/>
<path d="M338.015 105.458C337.982 106.061 338.1 106.664 338.356 107.212C339.005 108.396 340.562 108.666 341.909 108.777C349.779 109.423 357.696 109.182 365.512 108.058C365.936 108.029 366.348 107.901 366.714 107.685C367.825 106.907 367.14 105.01 365.927 104.402C364.713 103.795 363.273 103.941 361.942 103.678C360.619 103.346 359.36 102.8 358.213 102.062C355.513 100.512 352.852 98.8965 350.231 97.2145C348.67 96.2131 346.828 95.1444 345.071 95.7381C340.31 97.3474 337.984 100.326 338.015 105.458Z" fill="#3F3D56"/>
<path d="M280 46.3078V46.3096C279.988 46.3833 279.976 46.4553 279.96 46.5273C279.941 46.6467 279.918 46.7679 279.895 46.8872C279.677 48.0022 279.41 49.1118 279.103 50.2145C278.259 53.2608 277.129 56.258 276.008 59.2113C273 67.13 269.991 75.0493 266.981 82.9692C266.222 84.9638 265.465 86.9601 264.602 88.9144C264.314 89.5658 264.017 90.2224 263.721 90.8861C262.663 93.2617 261.648 95.7146 261.31 98.243C260.996 99.907 260.96 101.612 261.203 103.287C261.541 104.945 262.548 106.564 264.124 107.177C264.893 107.477 265.995 107.879 265.784 108.678C265.67 109.117 265.171 109.331 264.723 109.405C264.131 109.499 263.526 109.462 262.95 109.296C262.374 109.131 261.842 108.84 261.391 108.446C260.549 107.7 259.903 106.539 258.783 106.415C258.008 106.33 257.295 106.794 256.585 107.119C253.689 108.441 250.315 107.515 247.273 106.576C247.512 105.345 248.75 104.534 249.978 104.288C251.206 104.041 252.477 104.216 253.73 104.183C254.131 104.204 254.529 104.102 254.87 103.89C255.176 103.609 255.39 103.243 255.485 102.84C256.292 100.45 256.892 97.996 257.279 95.5039C257.683 92.9001 257.852 90.2558 258.428 87.6836C258.877 85.6766 259.569 83.733 260.163 81.763C261.311 77.7068 262.255 73.5953 262.989 69.4442C263.36 67.7195 263.625 65.974 263.785 64.2171C263.885 62.7598 263.837 61.2954 263.978 59.8434C264.214 57.9542 264.608 56.0883 265.157 54.2652C265.695 52.2758 266.232 50.2877 266.768 48.3007C267.564 45.3597 268.418 42.3046 270.436 40.0185C271.136 39.2137 271.995 38.5612 272.958 38.1016C273.922 37.6419 274.969 37.3848 276.036 37.3461C276.436 37.3457 276.835 37.3886 277.226 37.4743C277.291 37.4901 277.356 37.5059 277.421 37.5235C277.847 37.6347 278.255 37.8037 278.635 38.0256C279.257 37.6306 279.573 37.7693 279.986 38.3786C280.348 39.0234 280.519 39.7579 280.478 40.4961C280.513 42.4444 280.353 44.3913 280 46.3078Z" fill="#FBBEBE"/>
<path d="M280.684 48.636L280.658 48.6624L280.515 48.8046L279.103 50.2145L278.41 47.3087L276.036 37.3461C276.436 37.3457 276.835 37.3886 277.226 37.4743C277.243 37.3602 277.27 37.2479 277.308 37.139L277.421 37.5235L278.226 40.259L279.749 45.4527L280 46.3078V46.3096L280.684 48.636Z" fill="#72BBFF"/>
<path d="M289.649 16.8531C289.648 17.7756 289.465 18.6888 289.11 19.5405C288.756 20.3923 288.237 21.1658 287.583 21.817C287.346 22.054 287.092 22.2734 286.823 22.4734C285.61 23.3868 284.133 23.8811 282.615 23.8818H274.184C272.321 23.879 270.536 23.1375 269.22 21.8204C267.903 20.5032 267.164 18.7179 267.164 16.8565C267.164 14.9952 267.903 13.2099 269.22 11.8927C270.536 10.5755 272.321 9.83411 274.184 9.83124H282.615C284.478 9.83608 286.263 10.5772 287.581 11.8928C288.899 13.2085 289.642 14.9917 289.649 16.8531V16.8531Z" fill="#2F2E41"/>
<path d="M297.553 17.3826C301.532 17.3826 304.758 14.1595 304.758 10.1837C304.758 6.20791 301.532 2.98488 297.553 2.98488C293.574 2.98488 290.349 6.20791 290.349 10.1837C290.349 14.1595 293.574 17.3826 297.553 17.3826Z" fill="#2F2E41"/>
<path opacity="0.1" d="M297.378 2.98488C297.289 2.98488 297.202 2.98838 297.114 2.99154C298.978 3.05924 300.743 3.84662 302.037 5.18802C303.332 6.52941 304.055 8.32025 304.055 10.1837C304.055 12.0472 303.332 13.838 302.037 15.1794C300.743 16.5208 298.978 17.3082 297.114 17.3759C297.202 17.379 297.289 17.3826 297.378 17.3826C299.289 17.3826 301.121 16.6241 302.472 15.2741C303.823 13.924 304.583 12.093 304.583 10.1837C304.583 8.27447 303.823 6.44342 302.472 5.09337C301.121 3.74333 299.289 2.98488 297.378 2.98488V2.98488Z" fill="black"/>
<path opacity="0.1" d="M263.112 2.98488C263.2 2.98488 263.287 2.98838 263.375 2.99154C261.511 3.05924 259.747 3.84662 258.452 5.18802C257.157 6.52941 256.434 8.32025 256.434 10.1837C256.434 12.0472 257.157 13.838 258.452 15.1794C259.747 16.5208 261.511 17.3082 263.375 17.3759C263.287 17.379 263.2 17.3826 263.112 17.3826C261.202 17.3809 259.371 16.6217 258.021 15.2718C256.671 13.922 255.913 12.0919 255.913 10.1837C255.913 8.27557 256.671 6.44547 258.021 5.09561C259.371 3.74575 261.202 2.98656 263.112 2.98488Z" fill="black"/>
<path opacity="0.1" d="M286.823 22.4734C285.61 23.3868 284.133 23.8811 282.614 23.8818H274.184C272.665 23.8811 271.188 23.3868 269.976 22.4734H286.823Z" fill="black"/>
<path d="M341.264 74.6356C341.264 74.6356 343.08 79.8649 344.742 78.4726L343.417 71.6372L341.264 74.6356Z" fill="#FBBEBE"/>
<path d="M562.288 234.108C563.98 234.723 565.792 234.936 567.58 234.732C569.368 234.527 571.085 233.911 572.594 232.931C574.103 231.95 575.364 230.633 576.277 229.083C577.19 227.533 577.73 225.792 577.854 223.998C577.979 222.204 577.685 220.405 576.995 218.744C576.306 217.083 575.239 215.604 573.88 214.425C572.521 213.246 570.906 212.398 569.163 211.948C567.42 211.499 565.597 211.46 563.836 211.835L564.127 217.813L561.297 212.69C558.519 213.994 556.373 216.347 555.33 219.231C554.96 220.242 554.735 221.299 554.662 222.373C554.483 224.891 555.131 227.4 556.507 229.517C557.884 231.635 559.913 233.247 562.288 234.108V234.108Z" fill="#57B894"/>
<path d="M576.293 303.436C575.294 298.352 579.623 293.845 583.9 290.916C588.176 287.987 593.173 285.109 594.632 280.137C596.729 272.993 590.483 266.45 585.621 260.807C582.014 256.62 578.917 252.02 576.393 247.104C575.382 245.133 574.452 243.073 574.186 240.874C573.803 237.707 574.821 234.555 575.847 231.535C579.264 221.471 582.918 211.492 586.809 201.598" stroke="#3F3D56" stroke-miterlimit="10"/>
<path d="M562.767 232.569C564.459 233.184 566.271 233.397 568.059 233.193C569.847 232.988 571.564 232.372 573.073 231.392C574.582 230.411 575.843 229.094 576.756 227.544C577.669 225.994 578.209 224.253 578.333 222.459C578.458 220.665 578.164 218.866 577.474 217.205C576.785 215.544 575.718 214.065 574.359 212.886C573 211.707 571.385 210.859 569.642 210.41C567.899 209.96 566.076 209.922 564.315 210.296L564.606 216.274L561.776 211.151C558.998 212.455 556.852 214.808 555.809 217.692C555.439 218.703 555.214 219.76 555.141 220.834C554.962 223.352 555.61 225.861 556.986 227.978C558.363 230.096 560.392 231.708 562.767 232.569V232.569Z" stroke="#3F3D56" stroke-miterlimit="10"/>
<path d="M574.873 199.534C575.537 197.703 576.651 196.069 578.113 194.782C579.575 193.495 581.337 192.597 583.238 192.169L584.195 197.852L585.97 191.884C588.433 191.92 590.821 192.738 592.789 194.219C594.757 195.7 596.203 197.768 596.918 200.123C597.633 202.479 597.581 205.001 596.768 207.325C595.956 209.649 594.425 211.654 592.397 213.052C590.369 214.45 587.949 215.168 585.486 215.102C583.023 215.036 580.645 214.19 578.695 212.686C576.745 211.181 575.324 209.097 574.637 206.733C573.95 204.369 574.032 201.848 574.873 199.534H574.873Z" fill="#57B894"/>
<path d="M575.511 197.482C576.175 195.651 577.289 194.017 578.751 192.731C580.213 191.444 581.976 190.545 583.877 190.117L584.834 195.8L586.608 189.832C589.071 189.868 591.459 190.686 593.427 192.167C595.395 193.648 596.841 195.716 597.556 198.071C598.272 200.427 598.219 202.949 597.406 205.273C596.594 207.597 595.063 209.602 593.035 211C591.007 212.398 588.587 213.116 586.124 213.05C583.662 212.984 581.283 212.138 579.333 210.634C577.383 209.13 575.962 207.045 575.275 204.681C574.588 202.317 574.671 199.796 575.511 197.482H575.511Z" stroke="#3F3D56" stroke-miterlimit="10"/>
<path d="M583.581 260.923C586.264 261.895 589.211 261.847 591.861 260.788C594.51 259.728 596.677 257.732 597.949 255.179C599.22 252.626 599.506 249.694 598.754 246.944C598.001 244.193 596.262 241.815 593.867 240.264L592.504 244.85L591.537 239.101C591.527 239.096 591.518 239.092 591.507 239.09C590.072 238.568 588.549 238.335 587.023 238.402C585.498 238.47 584.001 238.837 582.618 239.483C581.235 240.129 579.992 241.04 578.962 242.166C577.931 243.292 577.133 244.609 576.612 246.044C576.092 247.478 575.859 249 575.927 250.524C575.996 252.048 576.364 253.544 577.011 254.926C577.658 256.307 578.572 257.548 579.699 258.577C580.826 259.606 582.145 260.403 583.581 260.923H583.581Z" fill="#57B894"/>
<path d="M584.134 258.844C586.817 259.817 589.764 259.769 592.414 258.709C595.064 257.65 597.231 255.654 598.502 253.1C599.773 250.547 600.06 247.616 599.307 244.865C598.554 242.115 596.815 239.737 594.42 238.186L593.057 242.772L592.09 237.022C592.081 237.018 592.071 237.014 592.061 237.011C590.626 236.49 589.102 236.257 587.577 236.324C586.051 236.392 584.554 236.759 583.171 237.405C581.788 238.05 580.545 238.962 579.515 240.088C578.484 241.214 577.686 242.531 577.165 243.965C576.645 245.399 576.412 246.922 576.48 248.446C576.549 249.97 576.917 251.466 577.564 252.847C578.212 254.229 579.125 255.47 580.252 256.499C581.379 257.528 582.698 258.325 584.134 258.844H584.134Z" stroke="#3F3D56" stroke-miterlimit="10"/>
<path d="M571.481 280.208C571.942 282.831 573.292 285.216 575.304 286.962C577.316 288.708 579.868 289.71 582.531 289.8C585.195 289.89 587.808 289.061 589.933 287.454C592.058 285.847 593.565 283.559 594.202 280.973C594.839 278.387 594.567 275.661 593.431 273.252C592.295 270.843 590.365 268.898 587.964 267.742C585.563 266.587 582.837 266.291 580.244 266.905C577.65 267.519 575.347 269.005 573.721 271.114L578.899 278.902L571.823 274.769C571.275 276.528 571.157 278.394 571.481 280.208V280.208Z" fill="#57B894"/>
<path d="M571.959 278.669C572.421 281.292 573.77 283.677 575.782 285.423C577.794 287.169 580.346 288.171 583.01 288.261C585.673 288.351 588.287 287.522 590.412 285.915C592.537 284.308 594.044 282.02 594.681 279.434C595.318 276.848 595.045 274.122 593.909 271.713C592.773 269.305 590.843 267.359 588.442 266.203C586.041 265.048 583.315 264.752 580.722 265.366C578.129 265.98 575.826 267.466 574.199 269.576L579.377 277.363L572.302 273.23C571.753 274.989 571.636 276.855 571.959 278.669V278.669Z" stroke="#3F3D56" stroke-miterlimit="10"/>
<path d="M5.02985 262.398C6.14134 262.802 7.3315 262.942 8.5065 262.808C9.68151 262.674 10.8092 262.269 11.8008 261.624C12.7924 260.98 13.6208 260.115 14.2205 259.097C14.8203 258.078 15.1751 256.934 15.2571 255.756C15.339 254.577 15.1458 253.395 14.6926 252.303C14.2395 251.212 13.5388 250.241 12.6458 249.466C11.7528 248.691 10.6919 248.134 9.54677 247.839C8.40161 247.544 7.20347 247.518 6.0468 247.765L6.23794 251.692L4.37836 248.326C2.55328 249.183 1.14334 250.729 0.458359 252.624C0.215094 253.288 0.0672078 253.983 0.0191107 254.688C-0.0982671 256.343 0.327392 257.99 1.23158 259.382C2.13578 260.773 3.46922 261.832 5.02985 262.398V262.398Z" fill="#57B894"/>
<path d="M14.2316 307.948C13.5751 304.608 16.4196 301.647 19.2293 299.722C22.0389 297.797 25.3219 295.906 26.2806 292.64C27.6583 287.946 23.5544 283.647 20.3601 279.94C17.9903 277.189 15.9552 274.167 14.2974 270.937C13.5766 269.668 13.0857 268.282 12.8473 266.843C12.5954 264.762 13.2644 262.692 13.9384 260.707C16.1838 254.096 18.5844 247.539 21.1404 241.038" stroke="#3F3D56" stroke-miterlimit="10"/>
<path d="M5.34431 261.387C6.4558 261.791 7.64595 261.931 8.82096 261.797C9.99596 261.663 11.1237 261.257 12.1153 260.613C13.1069 259.969 13.9352 259.104 14.535 258.086C15.1347 257.067 15.4896 255.923 15.5715 254.744C15.6534 253.566 15.4602 252.384 15.0071 251.292C14.5539 250.201 13.8532 249.229 12.9602 248.455C12.0673 247.68 11.0064 247.123 9.86122 246.828C8.71606 246.532 7.51793 246.507 6.36126 246.753L6.5524 250.681L4.69281 247.315C2.86774 248.172 1.45779 249.718 0.772812 251.613C0.52955 252.276 0.381666 252.971 0.333566 253.677C0.216181 255.331 0.641837 256.979 1.54603 258.371C2.45022 259.762 3.78367 260.821 5.34431 261.387V261.387Z" stroke="#3F3D56" stroke-miterlimit="10"/>
<path d="M13.2987 239.682C13.7349 238.479 14.467 237.406 15.4276 236.56C16.3881 235.715 17.5462 235.124 18.7951 234.844L19.4238 238.577L20.5895 234.656C22.2081 234.68 23.7771 235.217 25.07 236.19C26.363 237.163 27.313 238.522 27.783 240.069C28.2529 241.617 28.2184 243.274 27.6845 244.801C27.1505 246.328 26.1448 247.646 24.8125 248.564C23.4801 249.482 21.8901 249.954 20.272 249.911C18.6539 249.868 17.0914 249.312 15.8102 248.323C14.5289 247.335 13.5952 245.965 13.1437 244.412C12.6923 242.859 12.7466 241.202 13.2987 239.682V239.682Z" fill="#57B894"/>
<path d="M13.7177 238.334C14.1539 237.131 14.886 236.058 15.8465 235.212C16.807 234.367 17.9651 233.776 19.214 233.495L19.8428 237.229L21.0085 233.308C22.627 233.332 24.196 233.869 25.489 234.842C26.7819 235.815 27.732 237.174 28.2019 238.721C28.6718 240.269 28.6373 241.926 28.1034 243.453C27.5695 244.98 26.5637 246.297 25.2314 247.216C23.899 248.134 22.309 248.606 20.6909 248.563C19.0728 248.519 17.5104 247.963 16.2291 246.975C14.9478 245.987 14.0141 244.617 13.5627 243.064C13.1113 241.511 13.1655 239.854 13.7177 238.334V238.334Z" stroke="#3F3D56" stroke-miterlimit="10"/>
<path d="M19.02 280.016C20.7827 280.655 22.719 280.623 24.46 279.927C26.2009 279.231 27.6247 277.919 28.4599 276.242C29.2951 274.565 29.4834 272.639 28.9888 270.831C28.4942 269.024 27.3514 267.462 25.7782 266.443L24.8825 269.456L24.2473 265.678C24.241 265.675 24.2345 265.673 24.2279 265.671C23.285 265.328 22.2838 265.175 21.2816 265.219C20.2793 265.263 19.2955 265.504 18.3865 265.929C17.4776 266.353 16.6612 266.952 15.984 267.692C15.3069 268.431 14.7823 269.297 14.4401 270.239C14.098 271.182 13.9451 272.182 13.9901 273.184C14.0351 274.185 14.2772 275.168 14.7026 276.076C15.1279 276.984 15.7281 277.799 16.4689 278.475C17.2097 279.151 18.0766 279.675 19.02 280.016V280.016Z" fill="#57B894"/>
<path d="M19.3835 278.65C21.1462 279.289 23.0826 279.257 24.8235 278.562C26.5645 277.866 27.9882 276.554 28.8234 274.876C29.6587 273.199 29.8469 271.273 29.3524 269.466C28.8578 267.659 27.715 266.096 26.1417 265.077L25.246 268.09L24.6109 264.313C24.6046 264.31 24.5981 264.307 24.5915 264.305C23.6488 263.964 22.648 263.811 21.6463 263.856C20.6445 263.9 19.6614 264.142 18.753 264.566C16.9185 265.424 15.4999 266.974 14.8093 268.876C14.1187 270.778 14.2126 272.877 15.0704 274.71C15.9283 276.543 17.4797 277.96 19.3835 278.65V278.65Z" stroke="#3F3D56" stroke-miterlimit="10"/>
<path d="M11.0695 292.687C11.3725 294.41 12.2594 295.977 13.5813 297.124C14.9032 298.271 16.5797 298.93 18.3297 298.989C20.0797 299.047 21.7968 298.503 23.1929 297.447C24.5891 296.392 25.5794 294.888 25.9978 293.189C26.4162 291.49 26.2373 289.699 25.491 288.117C24.7447 286.534 23.4765 285.256 21.8989 284.496C20.3214 283.737 18.5306 283.543 16.8268 283.946C15.123 284.35 13.6098 285.326 12.541 286.712L15.9433 291.829L11.2945 289.113C10.934 290.269 10.8569 291.495 11.0695 292.687V292.687Z" fill="#57B894"/>
<path d="M11.3839 291.676C11.687 293.399 12.5738 294.966 13.8957 296.113C15.2176 297.26 16.8942 297.919 18.6442 297.977C20.3942 298.036 22.1112 297.492 23.5074 296.436C24.9035 295.38 25.8938 293.877 26.3122 292.178C26.7307 290.479 26.5517 288.688 25.8054 287.105C25.0591 285.523 23.7909 284.245 22.2134 283.485C20.6359 282.726 18.8451 282.532 17.1412 282.935C15.4374 283.339 13.9242 284.315 12.8554 285.701L16.2577 290.818L11.6089 288.102C11.2485 289.258 11.1713 290.484 11.3839 291.676V291.676Z" stroke="#3F3D56" stroke-miterlimit="10"/>
<path d="M268.587 190.342C273.831 190.342 278.081 184.846 278.081 178.066C278.081 171.286 273.831 165.79 268.587 165.79C263.344 165.79 259.094 171.286 259.094 178.066C259.094 184.846 263.344 190.342 268.587 190.342Z" fill="#2F2E41"/>
<path d="M320.244 190.621C325.487 190.621 329.737 185.125 329.737 178.345C329.737 171.565 325.487 166.069 320.244 166.069C315 166.069 310.75 171.565 310.75 178.345C310.75 185.125 315 190.621 320.244 190.621Z" fill="#2F2E41"/>
<path d="M312.984 214.615C312.984 220.161 305.232 224.659 295.671 224.659C286.111 224.659 278.359 220.161 278.359 214.615C278.359 209.811 284.173 205.793 291.941 204.811C293.178 204.648 294.424 204.568 295.671 204.571C297.762 204.564 299.846 204.789 301.887 205.241C308.376 206.686 312.984 210.341 312.984 214.615Z" fill="#2F2E41"/>
<path d="M270.821 187.552C276.064 187.552 280.315 182.056 280.315 175.276C280.315 168.496 276.064 163 270.821 163C265.578 163 261.327 168.496 261.327 175.276C261.327 182.056 265.578 187.552 270.821 187.552Z" stroke="#3F3D56" stroke-miterlimit="10"/>
<path d="M322.478 187.831C327.721 187.831 331.972 182.335 331.972 175.555C331.972 168.775 327.721 163.279 322.478 163.279C317.235 163.279 312.984 168.775 312.984 175.555C312.984 182.335 317.235 187.831 322.478 187.831Z" stroke="#3F3D56" stroke-miterlimit="10"/>
<path d="M297.906 221.869C307.467 221.869 315.218 217.372 315.218 211.825C315.218 206.278 307.467 201.781 297.906 201.781C288.345 201.781 280.594 206.278 280.594 211.825C280.594 217.372 288.345 221.869 297.906 221.869Z" stroke="#3F3D56" stroke-miterlimit="10"/>
<path d="M302.094 206.078C302.099 206.779 301.835 207.456 301.357 207.97C301.131 208.216 300.857 208.413 300.551 208.549C300.246 208.684 299.915 208.754 299.581 208.756H293.997C293.309 208.732 292.658 208.437 292.187 207.935C291.716 207.433 291.463 206.765 291.484 206.078C291.481 205.533 291.64 205.001 291.942 204.548C293.177 204.374 294.424 204.289 295.672 204.292C297.765 204.285 299.851 204.525 301.888 205.006C302.025 205.346 302.096 205.71 302.094 206.078V206.078Z" fill="white"/>
<path d="M270.821 174.718C272.363 174.718 273.613 173.469 273.613 171.928C273.613 170.387 272.363 169.138 270.821 169.138C269.278 169.138 268.028 170.387 268.028 171.928C268.028 173.469 269.278 174.718 270.821 174.718Z" fill="white"/>
<path d="M322.757 174.718C324.299 174.718 325.549 173.469 325.549 171.928C325.549 170.387 324.299 169.138 322.757 169.138C321.215 169.138 319.965 170.387 319.965 171.928C319.965 173.469 321.215 174.718 322.757 174.718Z" fill="white"/>
<path opacity="0.3" d="M325.549 200.944C327.091 200.944 328.341 199.695 328.341 198.154C328.341 196.613 327.091 195.364 325.549 195.364C324.007 195.364 322.757 196.613 322.757 198.154C322.757 199.695 324.007 200.944 325.549 200.944Z" fill="#72BBFF"/>
<path opacity="0.3" d="M257.418 200.944C258.96 200.944 260.211 199.695 260.211 198.154C260.211 196.613 258.96 195.364 257.418 195.364C255.876 195.364 254.626 196.613 254.626 198.154C254.626 199.695 255.876 200.944 257.418 200.944Z" fill="#72BBFF"/>
</g>
<defs>
<clipPath id="clip0">
<rect width="600" height="326" fill="white"/>
</clipPath>
</defs>
</svg>
