<svg viewBox="0 0 795 535" fill="none" xmlns="http://www.w3.org/2000/svg">
<g clip-path="url(#clip0)">
<path d="M790.822 386.469C790.822 418.19 615.861 535 397.352 535C178.843 535 6.83978 410.519 6.83978 378.798C6.83978 347.077 178.843 420.113 397.352 420.113C615.861 420.113 790.822 354.72 790.822 386.469Z" fill="#3F3D56"/>
<path d="M794.993 373.808C794.993 374.23 794.993 374.652 794.993 375.081C794.513 388.264 787.156 401.375 773.731 410.633C759.49 420.442 740.392 425.604 720.786 428.899C717.72 429.414 714.64 429.879 711.566 430.329C709.998 430.544 708.436 430.758 706.881 430.958C663.234 436.678 618.67 437.772 574.313 438.822C527.915 439.966 481.474 441.096 435.026 441.682L425.814 441.789C355.339 442.547 284.893 441.911 214.676 437.922C192.885 436.692 170.878 435.062 149.273 432.317C146.193 431.94 143.122 431.528 140.061 431.08C111.407 426.983 83.6053 420.699 58.2751 410.498C52.2956 408.115 46.4468 405.419 40.7532 402.419C24.843 393.99 11.4257 383.331 4.78514 370.248C0.922242 362.577 -0.668197 353.967 0.200483 345.426C0.484596 342.321 1.01881 339.244 1.79795 336.225C3.79516 328.755 6.84118 321.604 10.8455 314.985C21.1896 297.526 36.7273 281.877 50.123 265.484C78.7198 230.546 97.3449 186.4 70.9545 150.59C63.3827 140.302 52.4368 131.287 46.2691 120.528C42.9696 114.715 40.9111 108.284 40.2231 101.64C39.8882 98.5847 39.7614 95.5106 39.8434 92.4386C40.136 85.2648 41.0346 78.1285 42.5297 71.1055C46.8278 49.1433 54.8581 25.4653 79.6582 11.7675C96.5856 2.41641 118.162 -0.486148 140.04 0.0643373C143.11 0.135829 146.181 0.278811 149.252 0.493286C157.64 1.04377 165.979 2.05895 174.03 3.35295C223.774 11.2814 269.685 27.846 316.033 42.802C351.32 54.1835 387.869 64.8286 425.792 69.9045C428.858 70.312 431.924 70.6909 435.004 71.0197C443.894 71.992 452.863 72.6355 461.903 72.9C506.898 74.1868 559.392 64.464 589.271 39.2131C618.133 14.8059 672.26 12.8399 711.545 27.417L712.132 27.6386C715.088 28.7634 717.954 29.974 720.729 31.2704C749.676 44.8538 769.068 68.1172 771.804 92.4601C772.147 95.4835 772.228 98.5307 772.048 101.568C772.052 101.599 772.052 101.63 772.048 101.661C770.171 131.609 745.643 156.76 720.736 181.953C717.655 185.063 714.568 188.173 711.516 191.304C703.436 199.583 695.606 207.926 688.815 216.512C685.714 220.404 682.862 224.487 680.276 228.737C677.9 232.657 675.87 236.777 674.209 241.048C672.457 245.47 671.331 250.114 670.863 254.846C670.165 261.629 671.407 268.47 674.445 274.578L674.51 274.721C681.157 287.875 695.226 297.198 711.516 305.462C714.518 306.992 717.605 308.479 720.736 309.952C738.401 318.273 757.434 326.002 771.905 336.275C775.806 338.983 779.446 342.046 782.779 345.426C784.136 346.828 785.417 348.3 786.619 349.837C791.902 356.499 794.843 364.712 794.986 373.207C794.993 373.422 794.993 373.615 794.993 373.808Z" fill="#72BBFF"/>
<path d="M794.993 373.808C794.993 374.23 794.993 374.652 794.993 375.081C794.513 388.264 787.156 401.375 773.731 410.633C759.49 420.442 740.392 425.604 720.786 428.899C717.72 429.414 714.64 429.879 711.566 430.329C709.998 430.544 708.436 430.758 706.881 430.958C663.234 436.678 618.67 437.772 574.313 438.822C527.915 439.966 481.474 441.096 435.026 441.682L425.814 441.789C355.339 442.547 284.893 441.911 214.676 437.922C192.885 436.692 170.878 435.062 149.273 432.317C146.193 431.94 143.122 431.528 140.061 431.08C111.407 426.983 83.6053 420.699 58.2751 410.498C52.2956 408.115 46.4468 405.419 40.7532 402.419C24.843 393.99 11.4257 383.331 4.78514 370.248C0.922242 362.577 -0.668197 353.967 0.200483 345.426C0.484596 342.321 1.01881 339.244 1.79795 336.225C3.79516 328.755 6.84118 321.604 10.8455 314.985C21.1896 297.526 36.7273 281.877 50.123 265.484C78.7198 230.546 97.3449 186.4 70.9545 150.59C63.3827 140.302 52.4368 131.287 46.2691 120.528C42.9696 114.715 40.9111 108.284 40.2231 101.64C39.8882 98.5847 39.7614 95.5106 39.8434 92.4386C40.136 85.2648 41.0346 78.1285 42.5297 71.1055C46.8278 49.1433 54.8581 25.4653 79.6582 11.7675C96.5856 2.41641 118.162 -0.486148 140.04 0.0643373C143.11 0.135829 146.181 0.278811 149.252 0.493286C157.64 1.04377 165.979 2.05895 174.03 3.35295C223.774 11.2814 269.685 27.846 316.033 42.802C351.32 54.1835 387.869 64.8286 425.792 69.9045C428.858 70.312 431.924 70.6909 435.004 71.0197C443.894 71.992 452.863 72.6355 461.903 72.9C506.898 74.1868 559.392 64.464 589.271 39.2131C618.133 14.8059 672.26 12.8399 711.545 27.417L712.132 27.6386C715.088 28.7634 717.954 29.974 720.729 31.2704C749.676 44.8538 769.068 68.1172 771.804 92.4601C772.147 95.4835 772.228 98.5307 772.048 101.568C772.052 101.599 772.052 101.63 772.048 101.661C770.171 131.609 745.643 156.76 720.736 181.953C717.655 185.063 714.568 188.173 711.516 191.304C703.436 199.583 695.606 207.926 688.815 216.512C685.714 220.404 682.862 224.487 680.276 228.737C677.9 232.657 675.87 236.777 674.209 241.048C672.457 245.47 671.331 250.114 670.863 254.846C670.165 261.629 671.407 268.47 674.445 274.578L674.51 274.721C681.157 287.875 695.226 297.198 711.516 305.462C714.518 306.992 717.605 308.479 720.736 309.952C738.401 318.273 757.434 326.002 771.905 336.275C775.806 338.983 779.446 342.046 782.779 345.426C784.136 346.828 785.417 348.3 786.619 349.837C791.902 356.499 794.843 364.712 794.986 373.207C794.993 373.422 794.993 373.615 794.993 373.808Z" fill="url(#paint0_linear)"/>
<path d="M720.764 31.2704V181.946C717.684 185.063 714.597 188.173 711.545 191.304V27.417L720.764 31.2704Z" fill="#3F3D56"/>
<path d="M772.084 101.568C772.087 101.599 772.087 101.63 772.084 101.661H40.2231C39.8886 98.6061 39.7618 95.5321 39.8435 92.46H771.84C772.183 95.4835 772.264 98.5307 772.084 101.568Z" fill="#3F3D56"/>
<path d="M172.87 54.019C174.354 54.019 175.556 52.8187 175.556 51.3381C175.556 49.8575 174.354 48.6572 172.87 48.6572C171.386 48.6572 170.184 49.8575 170.184 51.3381C170.184 52.8187 171.386 54.019 172.87 54.019Z" fill="#E7EFFD"/>
<path d="M86.8362 48.65C88.3198 48.65 89.5225 47.4497 89.5225 45.9691C89.5225 44.4884 88.3198 43.2881 86.8362 43.2881C85.3526 43.2881 84.1498 44.4884 84.1498 45.9691C84.1498 47.4497 85.3526 48.65 86.8362 48.65Z" fill="#E7EFFD"/>
<path d="M203.215 52.4891C203.852 52.4891 204.368 51.9738 204.368 51.3381C204.368 50.7024 203.852 50.1871 203.215 50.1871C202.578 50.1871 202.061 50.7024 202.061 51.3381C202.061 51.9738 202.578 52.4891 203.215 52.4891Z" fill="#E7EFFD"/>
<path d="M116.794 49.8082C117.431 49.8082 117.947 49.2928 117.947 48.6572C117.947 48.0215 117.431 47.5061 116.794 47.5061C116.157 47.5061 115.641 48.0215 115.641 48.6572C115.641 49.2928 116.157 49.8082 116.794 49.8082Z" fill="#E7EFFD"/>
<path d="M115.648 130.2C116.285 130.2 116.801 129.685 116.801 129.049C116.801 128.414 116.285 127.898 115.648 127.898C115.011 127.898 114.494 128.414 114.494 129.049C114.494 129.685 115.011 130.2 115.648 130.2Z" fill="#E7EFFD"/>
<path d="M647.589 69.4469C648.226 69.4469 648.742 68.9316 648.742 68.2959C648.742 67.6602 648.226 67.1449 647.589 67.1449C646.952 67.1449 646.436 67.6602 646.436 68.2959C646.436 68.9316 646.952 69.4469 647.589 69.4469Z" fill="#E7EFFD"/>
<path d="M256.984 70.505C257.621 70.505 258.137 69.9897 258.137 69.354C258.137 68.7183 257.621 68.203 256.984 68.203C256.347 68.203 255.831 68.7183 255.831 69.354C255.831 69.9897 256.347 70.505 256.984 70.505Z" fill="#E7EFFD"/>
<path d="M590.747 68.203C591.384 68.203 591.9 67.6876 591.9 67.0519C591.9 66.4163 591.384 65.9009 590.747 65.9009C590.11 65.9009 589.593 66.4163 589.593 67.0519C589.593 67.6876 590.11 68.203 590.747 68.203Z" fill="#E7EFFD"/>
<path d="M735.93 71.656C736.567 71.656 737.083 71.1407 737.083 70.505C737.083 69.8693 736.567 69.354 735.93 69.354C735.293 69.354 734.776 69.8693 734.776 70.505C734.776 71.1407 735.293 71.656 735.93 71.656Z" fill="#E7EFFD"/>
<path d="M794.993 373.808C794.993 374.23 794.993 374.652 794.993 375.08C794.628 388.364 787.256 401.611 773.732 410.934C759.49 420.742 740.393 425.904 720.786 429.2C717.72 429.714 714.64 430.179 711.567 430.629C709.998 430.844 708.436 431.058 706.882 431.259C696.136 432.688 685.334 433.782 674.495 434.697C659.953 435.927 645.34 436.778 630.712 437.407C611.929 438.229 593.111 438.694 574.314 439.158C537.572 440.059 500.802 440.96 463.995 441.582L450.936 441.796L435.005 442.011L425.792 442.118C367.768 442.733 309.829 442.418 251.991 440.059C248.142 439.907 244.3 439.74 240.465 439.559C231.869 439.182 223.273 438.746 214.676 438.25C197.448 437.278 180.084 436.049 162.906 434.225C158.35 433.749 153.813 433.222 149.295 432.646C146.215 432.269 143.144 431.857 140.083 431.409C136.673 430.932 133.277 430.413 129.896 429.85C104.824 425.761 80.6182 419.841 58.2967 410.819C52.312 408.425 46.4563 405.721 40.7532 402.719V276.894C43.9338 273.212 47.0929 269.53 50.1303 265.806C53.7837 261.33 57.2938 256.719 60.5174 251.986H129.86V209.342H251.998V303.096H450.936V228.744H680.455C678.124 232.539 676.114 236.52 674.445 240.648V241.048H674.18C672.428 245.47 671.302 250.114 670.835 254.846C670.137 261.629 671.378 268.47 674.417 274.578V274.878L674.481 275.021C681.129 288.175 695.198 297.498 711.488 305.762C714.489 307.292 717.577 308.779 720.707 310.252C738.193 318.488 757.033 326.152 771.446 336.275L771.876 336.575C775.671 339.202 779.222 342.164 782.485 345.426C782.593 345.526 782.686 345.626 782.779 345.726C784.136 347.128 785.418 348.6 786.619 350.137C791.837 356.72 794.774 364.816 794.986 373.207C794.993 373.422 794.993 373.615 794.993 373.808Z" fill="#72BBFF"/>
<path opacity="0.3" d="M794.993 373.808C794.993 374.23 794.993 374.652 794.993 375.08C794.628 388.364 787.256 401.611 773.732 410.934C759.49 420.742 740.393 425.904 720.786 429.2C717.72 429.714 714.64 430.179 711.567 430.629C709.998 430.844 708.436 431.058 706.882 431.259C696.136 432.688 685.334 433.782 674.495 434.697C659.953 435.927 645.34 436.778 630.712 437.407C611.929 438.229 593.111 438.694 574.314 439.158C537.572 440.059 500.802 440.96 463.995 441.582L450.936 441.796L435.005 442.011L425.792 442.118C367.768 442.733 309.829 442.418 251.991 440.059C248.142 439.907 244.3 439.74 240.465 439.559C231.869 439.182 223.273 438.746 214.676 438.25C197.448 437.278 180.084 436.049 162.906 434.225C158.35 433.749 153.813 433.222 149.295 432.646C146.215 432.269 143.144 431.857 140.083 431.409C136.673 430.932 133.277 430.413 129.896 429.85C104.824 425.761 80.6182 419.841 58.2967 410.819C52.312 408.425 46.4563 405.721 40.7532 402.719V276.894C43.9338 273.212 47.0929 269.53 50.1303 265.806C53.7837 261.33 57.2938 256.719 60.5174 251.986H129.86V209.342H251.998V303.096H450.936V228.744H680.455C678.124 232.539 676.114 236.52 674.445 240.648V241.048H674.18C672.428 245.47 671.302 250.114 670.835 254.846C670.137 261.629 671.378 268.47 674.417 274.578V274.878L674.481 275.021C681.129 288.175 695.198 297.498 711.488 305.762C714.489 307.292 717.577 308.779 720.707 310.252C738.193 318.488 757.033 326.152 771.446 336.275L771.876 336.575C775.671 339.202 779.222 342.164 782.485 345.426C782.593 345.526 782.686 345.626 782.779 345.726C784.136 347.128 785.418 348.6 786.619 350.137C791.837 356.72 794.774 364.816 794.986 373.207C794.993 373.422 794.993 373.615 794.993 373.808Z" fill="black"/>
<path opacity="0.4" d="M84.0209 269.373H63.5332V283.171H84.0209V269.373Z" fill="black"/>
<path opacity="0.4" d="M116.801 269.373H96.3135V283.171H116.801V269.373Z" fill="black"/>
<path opacity="0.4" d="M493.194 241.012H472.706V254.81H493.194V241.012Z" fill="black"/>
<path opacity="0.4" d="M548.503 241.012H528.016V254.81H548.503V241.012Z" fill="black"/>
<path opacity="0.4" d="M607.903 241.012H587.415V254.81H607.903V241.012Z" fill="black"/>
<path opacity="0.4" d="M493.194 283.178H472.706V296.976H493.194V283.178Z" fill="black"/>
<path opacity="0.4" d="M548.503 283.178H528.016V296.976H548.503V283.178Z" fill="black"/>
<path d="M607.903 283.178H587.415V296.976H607.903V283.178Z" fill="#72BBFF"/>
<path opacity="0.4" d="M493.194 325.337H472.706V339.135H493.194V325.337Z" fill="black"/>
<path opacity="0.4" d="M548.503 325.337H528.016V339.135H548.503V325.337Z" fill="black"/>
<path opacity="0.4" d="M607.903 325.337H587.415V339.135H607.903V325.337Z" fill="black"/>
<path opacity="0.4" d="M493.194 367.502H472.706V381.3H493.194V367.502Z" fill="black"/>
<path opacity="0.4" d="M548.503 367.502H528.016V381.3H548.503V367.502Z" fill="black"/>
<path opacity="0.4" d="M607.903 367.502H587.415V381.3H607.903V367.502Z" fill="black"/>
<path opacity="0.4" d="M493.194 409.668H472.706V423.466H493.194V409.668Z" fill="black"/>
<path opacity="0.4" d="M548.503 409.668H528.016V423.466H548.503V409.668Z" fill="black"/>
<path opacity="0.4" d="M607.903 409.668H587.415V423.466H607.903V409.668Z" fill="black"/>
<path opacity="0.4" d="M674.209 241.048C672.457 245.47 671.331 250.114 670.863 254.846H659.624V241.048H674.209Z" fill="black"/>
<path d="M680.111 283.178H659.624V296.976H680.111V283.178Z" fill="#72BBFF"/>
<path opacity="0.4" d="M680.111 325.337H659.624V339.135H680.111V325.337Z" fill="black"/>
<path opacity="0.4" d="M680.111 367.502H659.624V381.3H680.111V367.502Z" fill="black"/>
<path opacity="0.4" d="M680.111 409.668H659.624V423.466H680.111V409.668Z" fill="black"/>
<path opacity="0.4" d="M197.713 224.912H177.225V238.71H197.713V224.912Z" fill="black"/>
<path d="M197.713 255.847H177.225V269.645H197.713V255.847Z" fill="#72BBFF"/>
<path opacity="0.4" d="M197.713 286.774H177.225V300.572H197.713V286.774Z" fill="black"/>
<path opacity="0.4" d="M197.713 317.709H177.225V331.506H197.713V317.709Z" fill="black"/>
<path opacity="0.4" d="M197.713 348.636H177.225V362.434H197.713V348.636Z" fill="black"/>
<path opacity="0.4" d="M197.713 379.57H177.225V393.368H197.713V379.57Z" fill="black"/>
<path opacity="0.4" d="M197.713 410.497H177.225V424.295H197.713V410.497Z" fill="black"/>
<path opacity="0.4" d="M84.0209 305.433H63.5332V319.231H84.0209V305.433Z" fill="black"/>
<path opacity="0.4" d="M116.801 305.433H96.3135V319.231H116.801V305.433Z" fill="black"/>
<path opacity="0.4" d="M84.0209 341.494H63.5332V355.292H84.0209V341.494Z" fill="black"/>
<path opacity="0.4" d="M116.801 341.494H96.3135V355.292H116.801V341.494Z" fill="black"/>
<path opacity="0.4" d="M84.0209 377.554H63.5332V391.352H84.0209V377.554Z" fill="black"/>
<path opacity="0.4" d="M116.801 377.554H96.3135V391.352H116.801V377.554Z" fill="black"/>
<path opacity="0.4" d="M395.383 319.174H292.959V331.506H395.383V319.174Z" fill="black"/>
<path opacity="0.4" d="M395.383 358.523H292.959V370.855H395.383V358.523Z" fill="black"/>
<path opacity="0.4" d="M395.383 397.879H292.959V410.211H395.383V397.879Z" fill="black"/>
<path d="M149.252 0.493287V432.302C146.172 431.926 143.101 431.514 140.04 431.066V0.0643387C143.113 0.121532 146.179 0.278812 149.252 0.493287Z" fill="#3F3D56"/>
<path d="M435.005 71.0054V441.696L425.792 441.804V69.883C428.858 70.2977 431.929 70.6718 435.005 71.0054Z" fill="#3F3D56"/>
<path d="M782.779 345.426H0.200562C0.484674 342.321 1.01889 339.244 1.79803 336.225H771.933C775.829 338.946 779.461 342.026 782.779 345.426Z" fill="#3F3D56"/>
<path d="M711.545 305.433C714.547 306.963 717.634 308.45 720.764 309.923V428.899C717.698 429.414 714.618 429.879 711.545 430.329V305.433Z" fill="#3F3D56"/>
<path d="M241.647 164.295H239.885V162.536H239.569V164.295H237.807V164.609H239.569V166.368H239.885V164.609H241.647V164.295Z" fill="#E7EFFD"/>
<path d="M607.903 127.741H606.141V125.982H605.819V127.741H604.064V128.056H605.819V129.814H606.141V128.056H607.903V127.741Z" fill="#E7EFFD"/>
<path d="M283.389 120.628H281.627V118.869H281.304V120.628H279.549V120.949H281.304V122.701H281.627V120.949H283.389V120.628Z" fill="#E7EFFD"/>
<path d="M280.702 234.185C281.339 234.185 281.856 233.67 281.856 233.034C281.856 232.398 281.339 231.883 280.702 231.883C280.065 231.883 279.549 232.398 279.549 233.034C279.549 233.67 280.065 234.185 280.702 234.185Z" fill="#E7EFFD"/>
<path d="M543.725 131.351C544.362 131.351 544.879 130.836 544.879 130.2C544.879 129.565 544.362 129.049 543.725 129.049C543.088 129.049 542.572 129.565 542.572 130.2C542.572 130.836 543.088 131.351 543.725 131.351Z" fill="#E7EFFD"/>
<path d="M659.624 185.864C660.261 185.864 660.777 185.348 660.777 184.713C660.777 184.077 660.261 183.562 659.624 183.562C658.987 183.562 658.471 184.077 658.471 184.713C658.471 185.348 658.987 185.864 659.624 185.864Z" fill="#E7EFFD"/>
<path d="M478.115 195.737C478.752 195.737 479.268 195.221 479.268 194.586C479.268 193.95 478.752 193.435 478.115 193.435C477.478 193.435 476.961 193.95 476.961 194.586C476.961 195.221 477.478 195.737 478.115 195.737Z" fill="#E7EFFD"/>
<path d="M512.421 388.321C512.421 388.321 487.843 394.255 478.115 405.357C474.855 409.068 470.02 411.741 465.027 413.65V396.9C470.65 387.477 476.317 376.996 476.317 376.996C476.574 376.482 478.623 369.254 478.623 369.254C483.237 365.636 478.365 352.997 478.365 352.997C478.365 352.997 481.188 344.997 479.648 343.445C478.107 341.894 479.39 337.769 480.672 335.96C481.954 334.152 481.696 331.828 481.696 330.284C481.696 328.74 479.648 326.409 476.317 325.122C472.986 323.835 476.574 321.769 478.623 321.247C480.672 320.725 481.188 315.828 478.881 313.247C476.574 310.667 479.139 309.122 480.414 306.284C481.689 303.446 476.295 303.961 476.295 303.961V277.866C476.295 277.866 474.755 269.352 473.222 254.381C471.689 239.411 465.793 237.867 465.793 237.867C462.636 236.888 459.554 235.679 456.574 234.249C453.436 232.781 450.182 231.574 446.846 230.639C446.846 230.639 439.933 230.639 434.295 228.909C428.658 227.179 425.735 227.057 425.735 227.057L424.811 226.6C417.878 223.082 412.386 217.269 409.273 210.157C409.116 209.799 408.972 209.442 408.829 209.099C410.36 207.424 411.73 205.61 412.919 203.679V203.637C412.919 203.901 412.919 204.166 412.919 204.43C412.919 204.537 412.919 204.652 412.919 204.759C412.919 205.395 412.919 206.032 412.919 206.668V206.732C417.003 199.533 428.851 197.889 429.976 189.667C430.027 189.293 430.053 188.915 430.055 188.538V188.488C430.055 188.216 430.055 187.937 430.055 187.658C429.904 185.363 429.116 183.076 428.966 180.759C428.915 180.095 428.915 179.429 428.966 178.765V178.808C429.496 172.423 434.317 166.868 436.523 160.67C437.117 159.003 437.504 157.269 437.677 155.508V155.458C437.734 154.929 437.77 154.393 437.784 153.857C437.784 153.728 437.784 153.592 437.784 153.464C437.784 153.092 437.784 152.749 437.784 152.349C437.717 149.051 436.974 145.801 435.6 142.801C434.226 139.801 432.251 137.114 429.797 134.905C425.714 131.366 420.319 129.142 417.49 124.517C416.172 122.372 415.527 119.827 414.087 117.754C411.379 113.836 406.408 112.242 401.701 111.677C396.995 111.112 392.16 111.298 387.661 109.825C384.466 108.782 381.572 106.93 378.348 106.001C374.836 105.063 371.12 105.219 367.7 106.45C364.28 107.681 361.319 109.926 359.215 112.885C357.517 115.359 356.406 118.319 354.114 120.249C349.422 124.209 341.463 122.494 337.352 127.055C335.095 129.564 334.837 132.981 335.109 136.47C335.109 136.513 335.109 136.556 335.109 136.599C335.109 136.863 335.159 137.135 335.188 137.407C335.188 137.535 335.188 137.664 335.188 137.786C335.188 137.907 335.188 138.057 335.238 138.193C335.382 139.444 335.561 140.688 335.718 141.889C335.718 142.075 335.761 142.254 335.783 142.44L335.912 143.562C335.912 143.834 335.955 144.106 335.983 144.377C336.012 144.649 336.033 145.092 336.055 145.392C336.076 145.693 336.055 145.921 336.105 146.193C336.564 155.72 334.54 165.204 330.231 173.717C326.356 181.303 320.596 188.294 319.593 196.766C319.437 198.155 319.399 199.554 319.479 200.948C319.479 201.113 319.479 201.277 319.479 201.442C319.479 201.606 319.522 201.942 319.543 202.192C319.564 202.443 319.6 202.772 319.636 203.057C319.636 203.222 319.679 203.386 319.701 203.551C319.751 203.93 319.808 204.309 319.873 204.695L319.916 204.938C320.933 210.714 323.239 216.376 324.464 222.21C324.924 224.362 325.23 226.543 325.381 228.737C325.378 228.751 325.378 228.766 325.381 228.78C325.424 229.495 325.46 230.174 325.482 230.875C325.482 231.819 325.482 232.769 325.482 233.735C323.537 234.48 321.543 235.092 319.514 235.565C315.933 236.079 305.424 245.373 306.19 247.718C306.957 250.063 301.491 266.306 301.341 266.799L292.744 326.137C292.744 326.137 288.181 330.527 289.607 333.365C291.032 336.203 289.327 341.108 289.327 341.108C289.327 341.108 281.619 344.461 283.331 346.527C285.044 348.593 284.263 352.461 283.088 355.041C281.913 357.622 279.986 362.269 283.088 363.041C286.19 363.813 283.618 373.887 283.618 373.887C283.618 373.887 294.428 372.643 293.647 379.048C293.389 381.086 301.204 386.691 304.464 388.936V419.777C300.087 418.554 294.944 416.967 291.663 415.437C285.008 412.342 247.621 406.408 239.426 424.217C231.231 442.025 250.694 465.768 255.558 468.348C255.558 468.348 260.172 471.959 261.196 473.767C262.221 475.576 268.109 476.091 268.109 476.091C268.109 476.091 274.255 478.951 275.788 480.473C276.92 481.617 286.283 484.584 297.379 486.908C297.379 486.908 288.418 507.497 303.038 505.803C317.659 504.108 324.78 496.923 335.088 496.923C339.207 496.923 346.857 496.344 354.558 495.658C356.493 496 358.406 496.451 360.289 497.009C364.628 498.371 369.083 499.328 373.599 499.869C373.599 499.869 385.125 506.06 391.271 504.509C391.778 504.366 392.251 504.123 392.661 503.794H392.804C393.922 503.515 395.19 502.364 396.508 500.627C404.194 501.413 412.984 502.528 416.25 503.801C422.619 506.253 468.172 502.857 468.172 502.857C468.172 502.857 497.599 503.436 506.031 505.982C514.462 508.527 511.468 479.994 495.909 476.784C491.756 475.953 487.53 475.536 483.294 475.54C484.372 474.431 485.356 473.236 486.238 471.966C491.84 471.458 495.551 471.144 495.551 471.144C495.551 471.144 510.401 463.916 518.854 459.526C524.251 456.597 529.098 452.755 533.181 448.173C533.181 448.173 540.602 443.526 543.675 441.739C546.748 439.952 548.281 433.997 548.281 433.997C571.57 381.343 512.421 388.321 512.421 388.321ZM445.743 322.277C445.743 321.412 445.743 320.54 445.743 319.674C446.574 320.261 446.452 321.183 445.743 322.27V322.277ZM445.986 340.529C446.609 341.344 447.211 342.087 447.641 342.673C449.296 344.818 446.301 345.819 446.516 349.372C446.566 350.166 446.638 351.274 446.71 352.503C446.395 347.378 446.137 343.16 445.986 340.521V340.529Z" fill="url(#paint1_linear)"/>
<path d="M312.702 421.972C312.702 421.972 298.375 418.647 291.706 415.581C285.036 412.514 247.664 406.637 239.469 424.274C231.274 441.911 250.737 465.41 255.601 467.97C260.466 470.529 307.838 435.505 307.838 435.505L345.203 451.233L352.366 426.826L312.702 421.972Z" fill="#65617D"/>
<path d="M464.791 426.826H354.895C340.324 426.826 328.512 438.615 328.512 453.156V456.967C328.512 471.509 340.324 483.297 354.895 483.297H464.791C479.362 483.297 491.174 471.509 491.174 456.967V453.156C491.174 438.615 479.362 426.826 464.791 426.826Z" fill="#65617D"/>
<path opacity="0.1" d="M491.174 455.058C491.179 460.613 489.539 466.045 486.46 470.672C485.413 472.24 484.213 473.7 482.878 475.033C480.254 477.659 477.135 479.742 473.702 481.162C470.268 482.581 466.587 483.309 462.871 483.304H356.808C349.303 483.304 342.106 480.329 336.799 475.033C331.493 469.737 328.512 462.555 328.512 455.065C328.512 447.576 331.493 440.393 336.799 435.097C342.106 429.801 349.303 426.826 356.808 426.826H462.878C470.381 426.826 477.577 429.8 482.884 435.095C488.19 440.389 491.172 447.57 491.174 455.058Z" fill="black"/>
<path d="M402.611 456.71C402.611 456.71 386.3 460.892 372.99 460.706C359.68 460.52 297.422 486.336 297.422 486.336C297.422 486.336 288.46 506.725 303.081 505.038C317.702 503.351 324.822 496.273 335.131 496.273C345.439 496.273 377.868 492.698 377.868 492.698L409.073 469.692L402.611 456.71Z" fill="#FBBEBE"/>
<path d="M412.819 264.304L383.563 270.059L381.665 270.438C381.665 270.438 358.534 264.304 357.768 263.79C357.001 263.275 336.005 235.043 336.005 235.043C336.005 235.043 346.621 235.157 354.959 230.36C355.26 230.189 355.554 230.003 355.848 229.824C359.514 227.617 362.3 224.208 363.728 220.18C363.878 219.758 364.007 219.322 364.129 218.864C365.017 215.447 365.074 211.308 363.885 206.296C361.02 194.378 367.61 191.097 376.343 191.383C388.957 191.798 406.128 199.654 406.128 199.654C406.351 203.665 407.264 207.607 408.829 211.308C408.965 211.651 409.116 212.023 409.273 212.351C412.406 219.407 417.898 225.157 424.811 228.616L425.735 229.073C426.666 229.517 427.648 229.938 428.665 230.317C450.972 238.753 412.819 264.304 412.819 264.304Z" fill="#FBBEBE"/>
<path opacity="0.1" d="M409.302 212.351C403.738 218.637 396.191 222.84 387.909 224.263C379.627 225.687 371.106 224.246 363.756 220.18C365.017 216.519 365.253 211.965 363.914 206.296C357.001 177.163 406.179 199.655 406.179 199.655C406.421 204.044 407.48 208.349 409.302 212.351Z" fill="black"/>
<path d="M418.536 186.471C418.548 193.356 416.611 200.104 412.948 205.939C411.756 207.852 410.386 209.65 408.858 211.308C402.406 218.366 393.443 222.625 383.886 223.175C383.169 223.225 382.403 223.247 381.658 223.247C374.366 223.247 367.237 221.089 361.174 217.045C355.11 213.002 350.385 207.255 347.594 200.531C344.803 193.808 344.073 186.409 345.496 179.271C346.918 172.133 350.43 165.577 355.586 160.431C360.743 155.285 367.313 151.78 374.465 150.36C381.617 148.941 389.03 149.669 395.768 152.454C402.505 155.239 408.263 159.956 412.315 166.007C416.366 172.058 418.529 179.172 418.529 186.45L418.536 186.471Z" fill="#FBBEBE"/>
<path opacity="0.1" d="M412.819 264.304L383.563 270.059L381.665 270.438C381.665 270.438 358.534 264.304 357.768 263.79C357.001 263.275 336.005 235.043 336.005 235.043C336.005 235.043 346.621 235.157 354.959 230.36C355.26 230.189 355.554 230.003 355.848 229.824C358.498 232.684 367.173 240.769 380.805 240.712C382.555 240.713 384.303 240.586 386.035 240.333C390.147 239.704 394.294 239.297 398.435 238.903C406.365 238.074 418.493 235.672 424.861 228.68L425.785 229.138C426.716 229.581 427.698 230.003 428.715 230.382C450.972 238.753 412.819 264.304 412.819 264.304Z" fill="black"/>
<path d="M445.85 338.92C446.101 344.546 450.206 407.917 450.206 407.917H322.43L323.297 368.017L324.013 336.103L324.242 325.63L325.267 289.348L321.563 286.088L301.434 268.386C301.584 267.915 307.043 251.765 306.283 249.491C305.524 247.218 316.019 237.995 319.607 237.481C321.647 237.008 323.653 236.399 325.61 235.658C331.649 233.513 339.708 230.424 340.597 230.911C341.85 231.583 354.415 230.417 354.924 230.367C354.924 230.367 364.193 242.328 380.755 242.256C382.499 242.247 384.24 242.109 385.963 241.842C390.075 241.213 394.223 240.805 398.363 240.376C406.694 239.511 419.646 236.902 425.714 229.08C425.714 229.08 428.643 229.202 434.274 230.911C439.904 232.619 446.824 232.626 446.824 232.626C450.159 233.552 453.412 234.748 456.552 236.201C459.535 237.614 462.616 238.809 465.772 239.776C465.772 239.776 471.66 241.305 473.2 256.126C474.741 270.946 476.295 279.382 476.295 279.382L445.85 305.698C445.85 305.698 445.599 333.272 445.85 338.92Z" fill="#72BBFF"/>
<path d="M301.441 383.13L305.918 390.287L322.688 396.185L334.214 375.209L323.59 368.053L306.563 361.411L296.835 367.031L301.441 383.13Z" fill="#FBBEBE"/>
<path d="M444.568 418.39C444.568 418.39 468.379 416.603 478.115 405.615C487.85 394.626 512.421 388.75 512.421 388.75C512.421 388.75 571.57 381.851 548.238 433.982C548.238 433.982 546.705 439.859 543.632 441.646C540.559 443.434 533.138 448.038 533.138 448.038L442.283 440.116L444.568 418.39Z" fill="#65617D"/>
<path opacity="0.1" d="M491.174 455.058C491.179 460.613 489.539 466.045 486.46 470.672C471.173 472.023 437.318 475.197 430.234 477.17C421.53 479.58 403.915 475.383 401.988 474.911L401.809 474.868C401.809 474.868 398.413 464.588 396.794 458.011C396.078 455.022 395.698 452.799 396.171 452.635C397.711 452.127 411.795 448.288 411.537 450.49C411.279 452.692 453.802 434.004 453.802 434.004L455.105 450.361C459.425 455.294 491.174 447.959 491.174 455.058Z" fill="black"/>
<path d="M534.957 441.389L533.166 448.038C529.076 452.58 524.228 456.382 518.839 459.276C510.386 463.623 495.536 470.779 495.536 470.779C495.536 470.779 441 475.376 431.781 477.928C422.562 480.481 403.356 475.626 403.356 475.626C403.356 475.626 396.193 453.907 397.726 453.392C399.259 452.878 413.342 449.053 413.091 451.248C412.841 453.442 455.356 434.762 455.356 434.762L534.957 441.389Z" fill="#65617D"/>
<path d="M383.112 498.682C383.112 498.682 409.918 500.548 416.293 502.972C422.669 505.395 468.215 502.042 468.215 502.042C468.215 502.042 497.642 502.614 506.074 505.131C514.505 507.647 511.511 479.394 495.952 476.227C480.393 473.06 458.465 477.721 458.465 477.721C458.465 477.721 433.722 474.54 430.721 474.146C427.719 473.753 407.955 474.325 407.955 474.325L383.112 498.682Z" fill="#FBBEBE"/>
<path opacity="0.1" d="M277.773 428.156C277.773 428.156 313.203 431.337 322.946 437.135L277.773 428.156Z" fill="black"/>
<path opacity="0.1" d="M498.767 404.964C498.767 404.964 471.023 411.698 460.149 421.607L498.767 404.964Z" fill="black"/>
<path opacity="0.1" d="M279.836 420.113C280.402 420.299 296.147 422.358 295.767 423.852C295.388 425.346 279.836 420.113 279.836 420.113Z" fill="black"/>
<path opacity="0.1" d="M255.093 459.533L257.142 467.205C257.142 467.205 261.748 470.779 262.772 472.566C263.797 474.354 269.685 474.868 269.685 474.868C269.685 474.868 275.831 477.678 277.371 479.208C278.912 480.738 295.545 485.599 311.169 487.644C326.793 489.689 355.719 493.521 361.865 495.565C366.208 496.909 370.666 497.85 375.182 498.375C375.182 498.375 386.701 504.509 392.847 502.979C398.994 501.449 409.488 473.589 409.488 473.589C409.488 473.589 369.036 464.138 367.753 461.071C366.471 458.004 327.552 443.698 327.552 443.698L304.507 444.241L255.093 459.533Z" fill="black"/>
<path d="M253.553 460.298L255.601 467.969C255.601 467.969 260.215 471.544 261.239 473.331C262.264 475.119 268.152 475.633 268.152 475.633C268.152 475.633 274.298 478.443 275.831 479.98C277.364 481.517 294.012 486.364 309.629 488.409C325.245 490.454 354.186 494.286 360.332 496.33C364.673 497.67 369.129 498.608 373.642 499.133C373.642 499.133 385.168 505.259 391.314 503.73C397.461 502.2 407.955 474.339 407.955 474.339C407.955 474.339 367.496 464.888 366.221 461.821C364.945 458.754 307.838 435.505 307.838 435.505L289.929 431.416L253.553 460.298Z" fill="#65617D"/>
<path d="M305.911 265.834L301.434 268.394L292.837 327.167C292.837 327.167 288.274 331.514 289.7 334.316C291.125 337.119 289.42 341.98 289.42 341.98C289.42 341.98 281.713 345.304 283.425 347.349C285.137 349.394 284.356 353.226 283.181 355.778C282.006 358.33 280.079 362.927 283.181 363.699C286.283 364.471 283.711 374.423 283.711 374.423C283.711 374.423 294.521 373.193 293.74 379.527C293.418 382.087 305.961 390.251 305.961 390.251C305.961 390.251 291.706 364.443 323.641 368.017L326.384 353.469C326.384 353.469 329.128 345.276 326.384 342.745C323.641 340.214 327 328.053 327 328.053L327.602 275.285L305.911 265.834Z" fill="#72BBFF"/>
<path opacity="0.1" d="M298.955 341.737C299.521 342.673 316.764 344.597 317.888 347.649C319.013 350.702 298.955 341.737 298.955 341.737Z" fill="black"/>
<path opacity="0.1" d="M293.518 356.328C293.518 356.328 295.86 349.029 301.398 350.337C306.935 351.646 293.518 356.328 293.518 356.328Z" fill="black"/>
<path opacity="0.1" d="M290.524 366.988C290.524 366.988 294.643 357.258 300.266 358.008C305.889 358.759 290.524 366.988 290.524 366.988Z" fill="black"/>
<path d="M478.115 366.773L476.317 377.497C476.317 377.497 457.885 411.234 454.554 411.741C451.223 412.249 433.063 389.257 433.063 389.257L428.199 366.766L447.347 363.141L455.85 354.755C455.85 354.755 477.341 356.807 478.115 366.773Z" fill="#FBBEBE"/>
<path d="M469.404 274.528L476.317 279.382V305.19C476.317 305.19 481.696 304.676 480.414 307.492C479.132 310.309 476.575 311.832 478.881 314.391C481.188 316.951 480.672 321.798 478.623 322.313C476.575 322.827 472.993 324.865 476.317 326.145C479.641 327.424 481.696 329.719 481.696 331.256C481.696 332.793 481.954 335.088 480.672 336.875C479.39 338.663 478.115 342.752 479.648 344.289C481.181 345.826 478.365 353.74 478.365 353.74C478.365 353.74 483.237 366.266 478.623 369.84C478.623 369.84 476.575 376.989 476.317 377.504C476.317 377.504 479.547 352.632 447.333 363.149C447.333 363.149 446.738 353.669 446.516 350.159C446.294 346.648 449.296 345.619 447.641 343.524C445.986 341.429 441.846 336.618 443.801 335.346C445.757 334.073 445.084 331.771 444.31 329.976C443.536 328.182 440.836 328.189 443.286 326.016C445.736 323.842 447.19 321.805 445.75 320.783C444.31 319.76 441.81 316.429 443.801 314.899C445.793 313.369 445.85 291.135 445.85 291.135C445.85 291.135 454.045 258.428 469.404 274.528Z" fill="#72BBFF"/>
<path opacity="0.1" d="M466.152 318.495C466.152 318.495 475.994 315.828 476.317 318.495C476.639 321.162 466.152 318.495 466.152 318.495Z" fill="black"/>
<path opacity="0.1" d="M455.091 325.837C455.091 325.837 468.587 322.47 470.271 325.086C471.954 327.703 455.091 325.837 455.091 325.837Z" fill="black"/>
<path opacity="0.1" d="M452.09 332.943C452.09 332.943 472.334 330.134 473.645 334.252C474.955 338.37 452.09 332.943 452.09 332.943Z" fill="black"/>
<path opacity="0.1" d="M455.091 341.737C455.843 341.923 474.583 343.231 474.955 346.784C475.328 350.337 455.091 341.737 455.091 341.737Z" fill="black"/>
<path d="M457.534 353.254H312.014C307.872 353.254 304.514 356.605 304.514 360.739V436.756C304.514 440.89 307.872 444.241 312.014 444.241H457.534C461.676 444.241 465.034 440.89 465.034 436.756V360.739C465.034 356.605 461.676 353.254 457.534 353.254Z" fill="#3F3D56"/>
<path d="M384.774 404.657C388.042 404.657 390.691 402.013 390.691 398.751C390.691 395.49 388.042 392.846 384.774 392.846C381.506 392.846 378.857 395.49 378.857 398.751C378.857 402.013 381.506 404.657 384.774 404.657Z" fill="#E7EFFD"/>
<path opacity="0.1" d="M331.392 297.484C331.392 297.484 346.779 309.223 358.677 300.279C358.677 300.279 338.562 302.102 331.392 297.484Z" fill="black"/>
<path opacity="0.1" d="M409.302 300.643C409.302 300.643 424.682 312.375 436.581 303.432C436.581 303.432 416.473 305.262 409.302 300.643Z" fill="black"/>
<path opacity="0.1" d="M418.536 186.471C418.548 193.356 416.611 200.104 412.948 205.939C412.64 195.694 410.226 185.442 404.638 176.884C399.524 169.02 383.972 155.301 373.284 159.126C372.166 159.535 371.16 160.201 370.349 161.071C369.537 161.94 368.943 162.988 368.613 164.13C367.553 168.148 370.655 169.85 372.646 173.017C376.023 178.505 377.343 185.009 376.371 191.376C376.236 192.233 376.056 193.082 375.834 193.921C374.151 200.226 370.297 207.44 374.272 212.609C377.045 216.183 383.005 217.456 383.814 221.903C383.888 222.323 383.912 222.75 383.886 223.175C383.699 226.185 381.128 228.837 380.003 231.79C378.685 235.272 379.43 238.732 380.798 242.228C382.575 246.789 385.412 251.4 386.099 256.219C386.787 261.037 385.304 265.512 383.556 270.038C381.901 274.327 379.974 278.581 379.33 283.049C378.09 291.543 381.214 301.366 375.855 308.071C375.311 308.883 374.47 309.45 373.513 309.651C370.082 310.009 370.648 303.853 367.904 301.787C368.198 305.362 368.477 309.094 367.188 312.44C365.898 315.785 362.503 318.631 358.95 318.066L357.725 310.037C355.307 312.413 352.397 314.231 349.2 315.364C350.459 306.826 353.489 298.644 358.097 291.342C349.078 295.675 343.82 305.054 339.128 313.877C336.205 319.389 333.175 325.408 334.2 331.564C334.615 334.073 335.697 336.461 335.933 338.984C336.17 341.508 335.253 344.461 332.896 345.419C330.84 346.255 328.44 345.254 326.957 343.581L326.699 343.274C326.556 343.088 326.42 342.895 326.291 342.702C326.035 342.314 325.808 341.908 325.611 341.487C324.97 339.975 324.49 338.401 324.178 336.79L324.02 336.075C321.635 325.63 319.486 314.856 321.234 304.29C321.878 300.4 323.053 296.54 322.91 292.594C322.802 290.368 322.348 288.173 321.563 286.088C319.471 280.24 315.446 274.871 313.153 268.98C313.128 268.94 313.109 268.897 313.096 268.851C311.892 265.734 311.298 261.838 313.526 259.336C314.672 258.042 316.391 257.391 317.824 256.476C322.279 253.581 324.271 248.083 325.095 242.835C325.466 240.47 325.652 238.08 325.654 235.686C331.692 233.541 339.751 230.453 340.64 230.939C341.893 231.611 354.458 230.446 354.967 230.396C358.792 228.194 362.13 224.955 363.763 220.215C363.914 219.794 364.043 219.358 364.165 218.9C358.429 215.812 353.617 211.262 350.217 205.713C346.817 200.165 344.951 193.816 344.81 187.314C344.669 180.812 346.257 174.388 349.413 168.698C352.569 163.007 357.179 158.253 362.775 154.92C368.371 151.587 374.752 149.793 381.268 149.722C387.785 149.65 394.203 151.304 399.871 154.514C405.539 157.724 410.253 162.376 413.532 167.996C416.812 173.616 418.541 180.003 418.543 186.507L418.536 186.471Z" fill="black"/>
<path d="M375.834 192.391C374.143 198.697 370.297 205.91 374.279 211.086C377.052 214.661 383.012 215.926 383.807 220.38C384.444 223.954 381.285 226.9 380.01 230.26C376.973 238.289 384.896 246.181 386.099 254.682C387.41 263.904 380.676 272.304 379.337 281.519C378.098 290.013 381.221 299.828 375.863 306.542C375.321 307.356 374.479 307.924 373.52 308.122C370.089 308.486 370.655 302.331 367.911 300.257C368.205 303.832 368.484 307.564 367.195 310.91C365.905 314.255 362.51 317.094 358.957 316.536L357.732 308.5C355.315 310.876 352.405 312.695 349.207 313.827C350.466 305.292 353.493 297.114 358.097 289.813C349.078 294.145 343.827 303.525 339.135 312.339C336.205 317.852 333.182 323.878 334.2 330.034C334.615 332.543 335.697 334.924 335.933 337.454C336.17 339.985 335.253 342.924 332.896 343.889C330.747 344.782 328.146 343.596 326.699 341.744C325.252 339.892 324.694 337.533 324.171 335.253C321.721 324.586 319.436 313.576 321.219 302.781C321.864 298.885 323.039 295.024 322.896 291.085C322.587 282.456 316.205 275.357 313.096 267.328C311.885 264.204 311.298 260.315 313.526 257.813C314.672 256.519 316.391 255.868 317.824 254.953C322.272 252.051 324.271 246.56 325.088 241.313C325.968 235.64 325.805 229.855 324.608 224.24C322.81 215.84 318.683 207.633 319.708 199.104C320.711 190.711 326.47 183.791 330.346 176.277C335.331 166.552 337.245 155.546 335.833 144.713C335.167 139.673 333.999 133.839 337.423 130.072C341.535 125.553 349.494 127.255 354.186 123.337C356.478 121.428 357.588 118.49 359.286 116.045C361.408 113.108 364.373 110.883 367.79 109.665C371.207 108.447 374.914 108.294 378.42 109.225C381.644 110.147 384.538 111.977 387.733 113.014C392.231 114.444 397.045 114.286 401.773 114.851C406.501 115.416 411.451 116.996 414.159 120.864C415.591 122.923 416.243 125.432 417.561 127.562C420.391 132.138 425.785 134.34 429.868 137.85C433.37 140.966 435.874 145.042 437.069 149.569C438.264 154.097 438.097 158.875 436.588 163.308C434.152 170.078 428.514 176.069 428.994 183.247C429.188 186.2 430.427 189.095 430.04 192.019C428.908 200.162 417.067 201.785 412.977 208.92C413.306 197.224 411.057 185.177 404.66 175.376C399.545 167.512 383.993 153.786 373.305 157.61C372.188 158.021 371.184 158.688 370.373 159.557C369.561 160.427 368.966 161.474 368.635 162.615C367.574 166.625 370.676 168.334 372.668 171.501C374.574 174.592 375.837 178.035 376.381 181.624C376.925 185.214 376.739 188.875 375.834 192.391Z" fill="#3F3D56"/>
<g opacity="0.2">
<path opacity="0.2" d="M325.61 232.912C325.7 229.239 325.356 225.568 324.586 221.974C323.06 214.825 319.865 207.826 319.572 200.648C319.156 208.641 322.903 216.376 324.586 224.24C325.197 227.093 325.54 229.996 325.61 232.912Z" fill="black"/>
<path opacity="0.2" d="M356.127 290.928C356.75 289.791 357.395 288.662 358.09 287.561C349.078 291.893 343.82 301.273 339.128 310.095C336.413 315.192 333.627 320.74 334.042 326.416C334.386 321.548 336.786 316.801 339.128 312.39C343.469 304.232 348.297 295.61 356.127 290.928Z" fill="black"/>
<path opacity="0.2" d="M335.89 337.161C335.618 339.092 334.658 340.922 332.896 341.644C330.747 342.53 328.146 341.351 326.707 339.499C325.267 337.648 324.694 335.295 324.171 333.008C322.423 325.387 320.761 317.58 320.589 309.809C320.417 318.338 322.237 326.931 324.171 335.31C324.694 337.59 325.259 339.957 326.707 341.801C328.154 343.646 330.725 344.832 332.896 343.946C335.253 342.981 336.177 340.042 335.94 337.512C335.89 337.39 335.89 337.276 335.89 337.161Z" fill="black"/>
<path opacity="0.2" d="M376.665 184.713C376.581 186.548 376.303 188.369 375.834 190.146C374.587 194.815 372.152 199.991 372.589 204.444C372.933 200.555 374.795 196.323 375.834 192.427C376.498 189.912 376.778 187.311 376.665 184.713Z" fill="black"/>
<path opacity="0.2" d="M336.255 150.597C336.315 147.871 336.167 145.144 335.811 142.44C335.546 140.452 335.21 138.336 335.095 136.27C334.93 139.023 335.432 141.989 335.811 144.742C336.067 146.684 336.215 148.639 336.255 150.597Z" fill="black"/>
<path opacity="0.2" d="M383.814 220.451C383.814 220.387 383.814 220.337 383.764 220.273C383.22 222.932 381.028 225.363 380.017 228.037C379.418 229.633 379.202 231.347 379.387 233.041C379.474 232.116 379.686 231.207 380.017 230.339C381.285 226.971 384.445 223.997 383.814 220.451Z" fill="black"/>
<path opacity="0.2" d="M322.896 288.84C322.58 280.211 316.205 273.112 313.089 265.084C312.591 263.82 312.255 262.499 312.086 261.152C311.913 263.28 312.257 265.418 313.089 267.386C316.155 275.307 322.358 282.277 322.86 290.713C322.896 290.091 322.917 289.462 322.896 288.84Z" fill="black"/>
<path opacity="0.2" d="M404.66 173.131C399.538 165.267 383.993 151.541 373.305 155.365C372.187 155.776 371.182 156.443 370.369 157.312C369.557 158.181 368.96 159.229 368.627 160.37C368.375 161.245 368.348 162.17 368.549 163.058C368.549 162.929 368.592 162.801 368.627 162.672C368.959 161.53 369.555 160.482 370.368 159.613C371.181 158.743 372.187 158.077 373.305 157.668C383.993 153.843 399.538 167.591 404.66 175.433C410.448 184.312 412.834 195.029 412.991 205.66C413.142 194.257 410.856 182.625 404.66 173.131Z" fill="black"/>
<path opacity="0.2" d="M430.019 189.753C428.894 197.874 417.124 199.512 412.991 206.603C412.991 207.383 412.991 208.169 412.991 208.948C417.074 201.799 428.923 200.191 430.047 192.048C430.148 191.248 430.148 190.439 430.047 189.639C430.042 189.677 430.032 189.716 430.019 189.753Z" fill="black"/>
<path opacity="0.2" d="M436.566 161.035C434.131 167.812 428.493 173.796 428.973 180.981C428.973 181.081 428.973 181.188 428.973 181.295C429.503 174.968 434.324 169.478 436.53 163.337C437.524 160.531 437.95 157.557 437.784 154.586C437.706 156.785 437.295 158.959 436.566 161.035Z" fill="black"/>
<path opacity="0.2" d="M375.863 304.311C375.322 305.127 374.48 305.697 373.52 305.898C370.089 306.263 370.655 300.107 367.911 298.034C367.983 298.849 368.047 299.671 368.09 300.493C370.64 302.695 370.168 308.55 373.52 308.193C373.996 308.096 374.447 307.907 374.849 307.636C375.251 307.365 375.595 307.017 375.863 306.613C378.921 302.781 379.215 297.941 379.136 292.915C379.057 297.105 378.449 301.101 375.863 304.311Z" fill="black"/>
<path opacity="0.2" d="M367.188 308.686C365.884 312.039 362.503 314.877 358.942 314.313C358.536 311.639 358.13 308.96 357.725 306.277C355.412 308.542 352.653 310.302 349.623 311.446C349.465 312.261 349.315 313.083 349.193 313.905C352.393 312.773 355.305 310.955 357.725 308.579C358.13 311.262 358.536 313.941 358.942 316.615C362.524 317.172 365.884 314.341 367.188 310.988C367.988 308.653 368.307 306.18 368.126 303.718C368.088 305.414 367.771 307.093 367.188 308.686Z" fill="black"/>
<path opacity="0.2" d="M379.337 279.289C379.061 281.448 378.957 283.626 379.029 285.802C379.04 284.393 379.143 282.986 379.337 281.591C380.619 272.805 386.787 264.762 386.228 256.047C385.734 263.925 380.505 271.282 379.337 279.289Z" fill="black"/>
</g>
<path d="M592.344 401.189C592.344 401.189 587.48 423.802 609.128 426.483L610.468 423.974C610.468 423.974 593.705 408.245 592.344 401.189Z" fill="#72BBFF"/>
<path d="M617.373 423.823L612.359 424.889L611.858 424.996C611.858 424.996 598.426 414.115 598.598 389.822C600.395 393.401 602.543 396.795 605.009 399.952C610.317 406.98 616.371 416.367 617.373 423.823Z" fill="#72BBFF"/>
<path d="M619.078 426.154C618.682 426.41 618.233 426.574 617.764 426.635C617.296 426.695 616.82 426.651 616.371 426.504C603.476 423.487 607.81 381.465 607.81 381.465C608.526 381.801 609.307 387.184 612.28 394.047C617.495 406.194 623.226 423.109 619.078 426.154Z" fill="#72BBFF"/>
<path d="M647.747 401.189C647.747 401.189 648.585 423.802 626.937 426.483L625.597 423.974C625.597 423.974 646.407 408.245 647.747 401.189Z" fill="#72BBFF"/>
<path d="M641.543 389.822C641.701 414.129 624.25 424.996 624.25 424.996L623.749 424.889L618.734 423.823C619.73 416.367 625.798 406.98 631.113 399.952C634.12 396.125 637.628 392.718 641.543 389.822Z" fill="#72BBFF"/>
<path d="M623.67 423.952C622.896 424.895 621.916 425.648 620.805 426.154C620.466 426.306 620.114 426.423 619.752 426.504C616.571 427.219 615.454 424.96 615.64 421.071C615.941 414.143 620.303 402.133 624.236 393.189C627.058 386.712 631.665 381.808 632.352 381.486C632.309 381.45 632.116 414.186 623.67 423.952Z" fill="#72BBFF"/>
<path d="M620.06 366.709C620.06 366.709 605.625 417.797 618.047 425.504C630.468 433.21 623.247 371.234 620.06 366.709Z" fill="#72BBFF"/>
<path opacity="0.1" d="M592.344 401.189C592.344 401.189 587.48 423.802 609.128 426.483L610.468 423.974C610.468 423.974 593.705 408.245 592.344 401.189Z" fill="black"/>
<path opacity="0.1" d="M617.373 423.823L612.359 424.889L611.858 424.996C611.858 424.996 598.426 414.115 598.598 389.822C600.395 393.401 602.543 396.795 605.009 399.952C610.317 406.98 616.371 416.367 617.373 423.823Z" fill="black"/>
<path opacity="0.1" d="M619.078 426.154C618.682 426.41 618.233 426.574 617.764 426.635C617.296 426.695 616.82 426.651 616.371 426.504C603.476 423.487 607.81 381.465 607.81 381.465C608.526 381.801 609.307 387.184 612.28 394.047C617.495 406.194 623.226 423.109 619.078 426.154Z" fill="black"/>
<path opacity="0.1" d="M647.747 401.189C647.747 401.189 648.585 423.802 626.937 426.483L625.597 423.974C625.597 423.974 646.407 408.245 647.747 401.189Z" fill="black"/>
<path opacity="0.1" d="M641.543 389.822C641.701 414.129 624.25 424.996 624.25 424.996L623.749 424.889L618.734 423.823C619.73 416.367 625.798 406.98 631.113 399.952C634.12 396.125 637.628 392.718 641.543 389.822Z" fill="black"/>
<path opacity="0.1" d="M623.67 423.952C622.896 424.895 621.916 425.648 620.805 426.154C620.466 426.306 620.114 426.423 619.752 426.504C616.571 427.219 615.454 424.96 615.64 421.071C615.941 414.143 620.303 402.133 624.236 393.189C627.058 386.712 631.665 381.808 632.352 381.486C632.309 381.45 632.116 414.186 623.67 423.952Z" fill="black"/>
<path opacity="0.1" d="M620.06 366.709C620.06 366.709 605.625 417.797 618.047 425.504C630.468 433.21 623.247 371.234 620.06 366.709Z" fill="black"/>
<path d="M592.344 401.189C592.344 401.189 589.479 423.802 611.141 426.483L612.481 423.974C612.481 423.974 593.705 408.245 592.344 401.189Z" fill="#72BBFF"/>
<path d="M619.386 423.823L614.372 424.889L613.863 424.996C613.863 424.996 598.419 414.115 598.591 389.822C598.591 389.822 602.545 394.054 607.015 399.952C612.33 406.98 618.383 416.367 619.386 423.823Z" fill="#72BBFF"/>
<path opacity="0.1" d="M619.386 423.823L614.372 424.889C609.594 420.706 607.703 409.79 607.015 399.952C612.33 406.98 618.383 416.367 619.386 423.823Z" fill="black"/>
<path d="M621.091 426.154C620.695 426.41 620.246 426.574 619.777 426.635C619.309 426.695 618.832 426.651 618.383 426.504C605.453 423.487 607.81 381.465 607.81 381.465C608.527 381.801 611.32 387.184 614.257 394.047C619.508 406.194 625.239 423.109 621.091 426.154Z" fill="#72BBFF"/>
<path d="M647.747 401.189C647.747 401.189 650.612 423.802 628.95 426.483L627.61 423.974C627.61 423.974 646.407 408.245 647.747 401.189Z" fill="#72BBFF"/>
<path d="M641.543 389.822C641.701 414.129 626.263 424.996 626.263 424.996L625.762 424.889L620.747 423.823C621.75 416.367 627.811 406.98 633.126 399.952C637.582 394.04 641.543 389.822 641.543 389.822Z" fill="#72BBFF"/>
<path opacity="0.1" d="M633.104 399.952C632.46 409.132 630.776 419.255 626.693 423.952C626.408 424.289 626.097 424.602 625.762 424.889L620.747 423.823C621.715 416.367 627.789 406.98 633.104 399.952Z" fill="black"/>
<path d="M625.683 423.952C624.909 424.895 623.929 425.648 622.818 426.154C622.477 426.306 622.122 426.423 621.757 426.504C618.577 427.219 617.459 424.96 617.646 421.071C617.954 414.143 622.309 402.133 626.242 393.189C629.064 386.712 631.657 381.808 632.345 381.486C632.309 381.45 634.129 414.186 625.683 423.952Z" fill="#72BBFF"/>
<path opacity="0.1" d="M621.091 426.154C620.36 426.15 619.648 425.923 619.05 425.503C612.968 421.722 612.846 407.531 614.293 394.047C619.508 406.194 625.239 423.108 621.091 426.154Z" fill="black"/>
<path opacity="0.1" d="M625.683 423.952C624.967 425.461 624.043 426.261 622.818 426.154C622.198 426.072 621.605 425.849 621.084 425.504C619.504 424.419 618.302 422.869 617.646 421.071C617.954 414.143 622.309 402.133 626.242 393.189C627.603 405.622 628.069 418.841 625.683 423.952Z" fill="black"/>
<path d="M620.06 366.709C620.06 366.709 607.638 417.797 620.06 425.504C632.481 433.21 623.247 371.234 620.06 366.709Z" fill="#72BBFF"/>
<path d="M643.893 422.987H592.201V431.53H600.088L600.281 432.538L603.44 449.117H633.491L636.65 432.538L636.844 431.53H643.893V422.987Z" fill="#D4DFEC"/>
<path opacity="0.1" d="M643.871 422.987H592.179V431.53H600.066L600.26 432.538L603.419 449.117H633.47L636.629 432.538L636.822 431.53H643.871V422.987Z" fill="black"/>
<path d="M639.53 428.013L638.663 432.538L635.504 449.117H605.453L602.294 432.538L601.427 428.013H639.53Z" fill="#D4DFEC"/>
<path opacity="0.1" d="M639.53 428.013L638.663 432.538H602.294L601.427 428.013H639.53Z" fill="black"/>
<path d="M645.906 422.987H594.214V431.53H645.906V422.987Z" fill="#D4DFEC"/>
<path d="M204.604 368.303C203.869 369.311 203.28 370.419 202.856 371.592C202.749 371.878 202.642 372.207 202.534 372.521C202.341 372.427 202.136 372.357 201.925 372.314C201.032 372.087 200.108 372.007 199.189 372.078C199.189 371.72 199.225 371.363 199.239 370.955C199.354 366.909 198.874 361.283 195.012 363.663C191.309 365.965 193.952 369.783 196.345 372.242C196.553 372.457 196.753 372.65 196.954 372.843C194.805 374.408 194.361 378.005 193.995 381.772C193.63 385.54 190.413 389.636 188.307 391.995C188.1 392.231 187.899 392.446 187.706 392.646C186.849 391.958 185.855 391.46 184.79 391.187C183.725 390.913 182.614 390.869 181.531 391.059L181.244 390.015C179.525 383.817 175.95 373.079 171.394 370.712L171.996 369.955C173.93 367.424 176.108 363.67 172.891 362.712C169.675 361.754 169.381 365.965 169.56 369.147C169.56 369.54 169.618 369.919 169.654 370.269C169.009 370.299 168.378 370.46 167.798 370.741C167.218 371.023 166.701 371.419 166.28 371.906C166.129 371.72 165.964 371.527 165.785 371.32C163.178 368.239 158.385 363.37 156.938 367.031C155.592 370.462 159.804 374.895 162.769 377.511L162.956 377.669C160.964 385.733 169.646 392.296 174.331 395.17C174.539 395.306 174.74 395.427 174.933 395.541C168.486 403.127 164.496 417.353 164.496 417.353L182.591 420.635C182.591 420.635 194.575 410.319 193.042 400.617H193.164C205.134 398.222 207.857 385.483 205.994 377.919L206.202 377.833C208.382 376.941 210.292 375.5 211.746 373.651C215.07 369.018 208.043 363.763 204.604 368.303Z" fill="#72BBFF"/>
<path opacity="0.1" d="M204.604 368.303C203.869 369.311 203.28 370.419 202.856 371.592C202.749 371.878 202.642 372.207 202.534 372.521C202.341 372.427 202.136 372.357 201.925 372.314C201.032 372.087 200.108 372.007 199.189 372.078C199.189 371.72 199.225 371.363 199.239 370.955C199.354 366.909 198.874 361.283 195.012 363.663C191.309 365.965 193.952 369.783 196.345 372.242C196.553 372.457 196.753 372.65 196.954 372.843C194.805 374.408 194.361 378.005 193.995 381.772C193.63 385.54 190.413 389.636 188.307 391.995C188.1 392.231 187.899 392.446 187.706 392.646C186.849 391.958 185.855 391.46 184.79 391.187C183.725 390.913 182.614 390.869 181.531 391.059L181.244 390.015C179.525 383.817 175.95 373.079 171.394 370.712L171.996 369.955C173.93 367.424 176.108 363.67 172.891 362.712C169.675 361.754 169.381 365.965 169.56 369.147C169.56 369.54 169.618 369.919 169.654 370.269C169.009 370.299 168.378 370.46 167.798 370.741C167.218 371.023 166.701 371.419 166.28 371.906C166.129 371.72 165.964 371.527 165.785 371.32C163.178 368.239 158.385 363.37 156.938 367.031C155.592 370.462 159.804 374.895 162.769 377.511L162.956 377.669C160.964 385.733 169.646 392.296 174.331 395.17C174.539 395.306 174.74 395.427 174.933 395.541C168.486 403.127 164.496 417.353 164.496 417.353L182.591 420.635C182.591 420.635 194.575 410.319 193.042 400.617H193.164C205.134 398.222 207.857 385.483 205.994 377.919L206.202 377.833C208.382 376.941 210.292 375.5 211.746 373.651C215.07 369.018 208.043 363.763 204.604 368.303Z" fill="black"/>
<path d="M168.644 373.522L166.53 379.699C166.53 379.699 165.355 378.87 163.873 377.554C160.907 374.966 156.709 370.505 158.041 367.073C159.474 363.384 164.281 368.253 166.896 371.363C167.941 372.593 168.644 373.522 168.644 373.522Z" fill="#72BBFF"/>
<path d="M173.099 370.005C172.456 370.845 171.77 371.652 171.043 372.421C170.861 371.346 170.734 370.263 170.664 369.175C170.492 366.015 170.821 361.819 173.995 362.741C177.168 363.663 175.033 367.474 173.099 370.005Z" fill="#72BBFF"/>
<path d="M200.349 370.977C200.278 373.007 200.084 374.63 200.084 374.63C199.155 373.905 198.274 373.119 197.448 372.278C195.055 369.804 192.434 365.987 196.123 363.699C199.984 361.304 200.457 366.93 200.349 370.977Z" fill="#72BBFF"/>
<path d="M212.828 373.636C211.374 375.486 209.463 376.927 207.284 377.819C206.678 378.083 206.056 378.308 205.421 378.491L202.935 375.002C203.199 373.849 203.543 372.717 203.967 371.613C204.388 370.439 204.977 369.331 205.715 368.325C209.153 363.763 216.173 369.018 212.828 373.636Z" fill="#72BBFF"/>
<path opacity="0.1" d="M166.896 371.349C167.941 372.578 168.644 373.493 168.644 373.493L166.53 379.67C166.53 379.67 165.355 378.841 163.873 377.526C164.203 375.548 165.02 373.683 166.251 372.099C166.466 371.842 166.681 371.592 166.896 371.349Z" fill="black"/>
<path opacity="0.1" d="M173.099 370.005C172.456 370.845 171.77 371.652 171.043 372.421C170.861 371.346 170.734 370.263 170.664 369.175C171.542 369.19 172.394 369.48 173.099 370.005Z" fill="black"/>
<path d="M183.486 394.498L178.235 396.807C177.275 396.328 176.341 395.801 175.435 395.227C169.911 391.838 158.808 383.309 166.251 373.25C173.694 363.191 179.905 381.229 182.347 390.051C183.092 392.689 183.486 394.498 183.486 394.498Z" fill="#72BBFF"/>
<path opacity="0.1" d="M197.448 372.278C198.213 371.49 199.251 371.024 200.349 370.977C200.278 373.007 200.084 374.63 200.084 374.63C199.155 373.905 198.274 373.119 197.448 372.278Z" fill="black"/>
<path opacity="0.1" d="M207.284 377.819C206.678 378.083 206.056 378.308 205.421 378.491L202.935 375.002C203.199 373.849 203.543 372.717 203.967 371.613C205.571 372.55 206.753 374.88 207.284 377.819Z" fill="black"/>
<path d="M194.239 400.603C193.952 400.66 193.651 400.717 193.358 400.76C175.743 403.434 187.548 393.947 187.548 393.947C187.548 393.947 188.343 393.232 189.418 392.031C191.567 389.686 194.74 385.597 195.106 381.808C195.657 376.089 196.295 370.762 203.036 372.335C209.647 373.879 210.908 397.271 194.239 400.603Z" fill="#72BBFF"/>
<path d="M193.916 444.37H160.262V453.199H193.916V444.37Z" fill="#D4DFEC"/>
<path d="M198.881 415.666H154.911V446.486H198.881V415.666Z" fill="#D4DFEC"/>
<path opacity="0.1" d="M193.916 444.37H160.262V453.199H193.916V444.37Z" fill="black"/>
<path opacity="0.1" d="M198.881 415.666H154.911V446.486H198.881V415.666Z" fill="black"/>
<path d="M196.123 444.37H162.469V453.199H196.123V444.37Z" fill="#D4DFEC"/>
<path opacity="0.1" d="M182.347 390.051C183.064 392.689 183.486 394.498 183.486 394.498L178.235 396.807C177.275 396.328 176.341 395.801 175.435 395.227C177.49 392.61 179.811 390.658 182.347 390.051Z" fill="black"/>
<path opacity="0.1" d="M194.239 400.603C193.952 400.66 193.651 400.717 193.358 400.76C175.743 403.434 187.548 393.947 187.548 393.947C187.548 393.947 188.343 393.232 189.418 392.031C192.706 394.655 194.053 397.615 194.239 400.603Z" fill="black"/>
<path d="M165.606 417.411C165.606 417.411 175.47 382.18 189.296 393.032C203.122 403.884 183.673 420.635 183.673 420.635L165.606 417.411Z" fill="#72BBFF"/>
<path opacity="0.1" d="M170.585 379.878C171.194 379.878 171.688 379.385 171.688 378.777C171.688 378.169 171.194 377.676 170.585 377.676C169.976 377.676 169.482 378.169 169.482 378.777C169.482 379.385 169.976 379.878 170.585 379.878Z" fill="black"/>
<path opacity="0.1" d="M170.492 385.025C171.101 385.025 171.595 384.532 171.595 383.924C171.595 383.316 171.101 382.823 170.492 382.823C169.882 382.823 169.389 383.316 169.389 383.924C169.389 384.532 169.882 385.025 170.492 385.025Z" fill="black"/>
<path opacity="0.1" d="M202.57 380.886C203.179 380.886 203.673 380.393 203.673 379.785C203.673 379.177 203.179 378.684 202.57 378.684C201.961 378.684 201.467 379.177 201.467 379.785C201.467 380.393 201.961 380.886 202.57 380.886Z" fill="black"/>
<path opacity="0.1" d="M176.76 407.287C177.369 407.287 177.863 406.794 177.863 406.186C177.863 405.578 177.369 405.086 176.76 405.086C176.151 405.086 175.657 405.578 175.657 406.186C175.657 406.794 176.151 407.287 176.76 407.287Z" fill="black"/>
<path opacity="0.1" d="M200.27 389.443C200.88 389.443 201.374 388.95 201.374 388.342C201.374 387.734 200.88 387.241 200.27 387.241C199.661 387.241 199.167 387.734 199.167 388.342C199.167 388.95 199.661 389.443 200.27 389.443Z" fill="black"/>
<path opacity="0.1" d="M188.837 400.853C189.447 400.853 189.941 400.36 189.941 399.752C189.941 399.144 189.447 398.651 188.837 398.651C188.228 398.651 187.734 399.144 187.734 399.752C187.734 400.36 188.228 400.853 188.837 400.853Z" fill="black"/>
<path opacity="0.1" d="M174.367 382.08C174.976 382.08 175.47 381.587 175.47 380.979C175.47 380.371 174.976 379.878 174.367 379.878C173.758 379.878 173.264 380.371 173.264 380.979C173.264 381.587 173.758 382.08 174.367 382.08Z" fill="black"/>
<path opacity="0.1" d="M199.533 384.196C200.142 384.196 200.636 383.703 200.636 383.095C200.636 382.487 200.142 381.994 199.533 381.994C198.923 381.994 198.429 382.487 198.429 383.095C198.429 383.703 198.923 384.196 199.533 384.196Z" fill="black"/>
<path opacity="0.1" d="M195.75 392.753C196.36 392.753 196.853 392.26 196.853 391.652C196.853 391.044 196.36 390.551 195.75 390.551C195.141 390.551 194.647 391.044 194.647 391.652C194.647 392.26 195.141 392.753 195.75 392.753Z" fill="black"/>
<path opacity="0.1" d="M184.138 406.465C184.747 406.465 185.241 405.972 185.241 405.364C185.241 404.756 184.747 404.263 184.138 404.263C183.529 404.263 183.035 404.756 183.035 405.364C183.035 405.972 183.529 406.465 184.138 406.465Z" fill="black"/>
<path opacity="0.1" d="M181.738 401.032C182.348 401.032 182.842 400.539 182.842 399.931C182.842 399.323 182.348 398.83 181.738 398.83C181.129 398.83 180.635 399.323 180.635 399.931C180.635 400.539 181.129 401.032 181.738 401.032Z" fill="black"/>
<path opacity="0.1" d="M176.022 388.8C176.631 388.8 177.125 388.307 177.125 387.699C177.125 387.091 176.631 386.598 176.022 386.598C175.413 386.598 174.919 387.091 174.919 387.699C174.919 388.307 175.413 388.8 176.022 388.8Z" fill="black"/>
<path opacity="0.1" d="M196.123 444.37H162.469V447.594H196.123V444.37Z" fill="black"/>
<path d="M201.094 415.666H157.125V446.486H201.094V415.666Z" fill="#D4DFEC"/>
<path opacity="0.1" d="M185.614 411.434C186.223 411.434 186.717 410.941 186.717 410.333C186.717 409.725 186.223 409.232 185.614 409.232C185.005 409.232 184.511 409.725 184.511 410.333C184.511 410.941 185.005 411.434 185.614 411.434Z" fill="black"/>
<path opacity="0.1" d="M178.973 412.814C179.583 412.814 180.076 412.321 180.076 411.713C180.076 411.105 179.583 410.612 178.973 410.612C178.364 410.612 177.87 411.105 177.87 411.713C177.87 412.321 178.364 412.814 178.973 412.814Z" fill="black"/>
</g>
<defs>
<linearGradient id="paint0_linear" x1="397.496" y1="442.082" x2="397.496" y2="1.45534e-05" gradientUnits="userSpaceOnUse">
<stop offset="0.2" stop-color="#808080" stop-opacity="0.4"/>
<stop offset="0.46" stop-color="#808080" stop-opacity="0.5"/>
<stop offset="1" stop-opacity="0.6"/>
</linearGradient>
<linearGradient id="paint1_linear" x1="395.598" y1="506.017" x2="395.598" y2="105.357" gradientUnits="userSpaceOnUse">
<stop stop-color="#808080" stop-opacity="0.25"/>
<stop offset="0.54" stop-color="#808080" stop-opacity="0.12"/>
<stop offset="1" stop-color="#808080" stop-opacity="0.1"/>
</linearGradient>
<clipPath id="clip0">
<rect width="795" height="535" fill="white"/>
</clipPath>
</defs>
</svg>
