<svg width="260" height="156" viewBox="0 0 260 156" fill="none" xmlns="http://www.w3.org/2000/svg">
<path d="M54.0088 45.5273L62.6221 0H75.7617L61.5674 63.9844H48.2959L37.8809 21.1816L27.4658 63.9844H14.1943L0 0H13.1396L21.7969 45.4395L32.3438 0H43.5059L54.0088 45.5273Z" fill="white"/>
<path d="M121.421 36.2549H96.1084V53.3936H125.815V63.9844H82.9248V0H125.728V10.6787H96.1084V25.9277H121.421V36.2549Z" fill="white"/>
<path d="M183.384 45.5273L191.997 0H205.137L190.942 63.9844H177.671L167.256 21.1816L156.841 63.9844H143.569L129.375 0H142.515L151.172 45.4395L161.719 0H172.881L183.384 45.5273Z" fill="white"/>
<path d="M250.796 36.2549H225.483V53.3936H255.19V63.9844H212.3V0H255.103V10.6787H225.483V25.9277H250.796V36.2549Z" fill="white"/>
<path d="M4.67529 154.984V85.3961H29.0503C37.4939 85.3961 43.8983 87.0211 48.2635 90.2711C52.6287 93.4892 54.8113 98.2208 54.8113 104.466C54.8113 107.875 53.9351 110.886 52.1826 113.499C50.4302 116.08 47.9927 117.976 44.8701 119.187C48.4388 120.079 51.2427 121.879 53.2819 124.587C55.353 127.296 56.3885 130.609 56.3885 134.528C56.3885 141.22 54.2537 146.286 49.9841 149.727C45.7145 153.168 39.6287 154.921 31.7268 154.984H4.67529ZM19.0135 124.683V143.466H31.2966C34.6741 143.466 37.3027 142.669 39.1826 141.076C41.0944 139.451 42.0503 137.221 42.0503 134.385C42.0503 128.012 38.7525 124.778 32.1569 124.683H19.0135ZM19.0135 114.55H29.6238C36.8567 114.423 40.4731 111.539 40.4731 105.9C40.4731 102.745 39.5491 100.483 37.701 99.113C35.8849 97.711 33.0013 97.01 29.0503 97.01H19.0135V114.55Z" fill="white"/>
<path d="M124.352 121.767C124.352 128.618 123.141 134.624 120.719 139.786C118.298 144.948 114.825 148.93 110.3 151.734C105.808 154.538 100.646 155.94 94.815 155.94C89.0478 155.94 83.902 154.554 79.3775 151.782C74.853 149.01 71.3481 145.059 68.8628 139.929C66.3775 134.767 65.1189 128.841 65.0871 122.15V118.709C65.0871 111.858 66.3138 105.836 68.7672 100.642C71.2525 95.4169 74.7415 91.4181 79.2341 88.6461C83.7586 85.8421 88.9204 84.4402 94.7194 84.4402C100.518 84.4402 105.664 85.8421 110.157 88.6461C114.681 91.4181 118.17 95.4169 120.624 100.642C123.109 105.836 124.352 111.842 124.352 118.661V121.767ZM109.822 118.613C109.822 111.316 108.516 105.772 105.903 101.981C103.29 98.189 99.5626 96.2931 94.7194 96.2931C89.9081 96.2931 86.1961 98.173 83.5834 101.933C80.9706 105.661 79.6483 111.141 79.6165 118.374V121.767C79.6165 128.873 80.9228 134.385 83.5356 138.304C86.1483 142.223 89.9081 144.183 94.815 144.183C99.6263 144.183 103.322 142.303 105.903 138.543C108.484 134.751 109.79 129.239 109.822 122.006V118.613Z" fill="white"/>
<path d="M191.933 121.767C191.933 128.618 190.722 134.624 188.3 139.786C185.879 144.948 182.406 148.93 177.881 151.734C173.389 154.538 168.227 155.94 162.396 155.94C156.629 155.94 151.483 154.554 146.958 151.782C142.434 149.01 138.929 145.059 136.444 139.929C133.958 134.767 132.7 128.841 132.668 122.15V118.709C132.668 111.858 133.895 105.836 136.348 100.642C138.833 95.4169 142.322 91.4181 146.815 88.6461C151.34 85.8421 156.501 84.4402 162.3 84.4402C168.099 84.4402 173.245 85.8421 177.738 88.6461C182.262 91.4181 185.751 95.4169 188.205 100.642C190.69 105.836 191.933 111.842 191.933 118.661V121.767ZM177.403 118.613C177.403 111.316 176.097 105.772 173.484 101.981C170.871 98.189 167.143 96.2931 162.3 96.2931C157.489 96.2931 153.777 98.173 151.164 101.933C148.552 105.661 147.229 111.141 147.197 118.374V121.767C147.197 128.873 148.504 134.385 151.116 138.304C153.729 142.223 157.489 144.183 162.396 144.183C167.207 144.183 170.903 142.303 173.484 138.543C176.065 134.751 177.371 129.239 177.403 122.006V118.613Z" fill="white"/>
<path d="M224.146 127.073L216.69 135.102V154.984H202.352V85.3961H216.69V116.94L222.999 108.289L240.73 85.3961H258.366L233.657 116.319L259.083 154.984H242.021L224.146 127.073Z" fill="white"/>
</svg>
